<?xml version="1.0" encoding="UTF-8" standalone="no"?>
<!DOCTYPE svg PUBLIC "-//W3C//DTD SVG 1.1//EN"
 "http://www.w3.org/Graphics/SVG/1.1/DTD/svg11.dtd">
<!-- Generated by graphviz version 2.26.3 (20100126.1600)
 -->
<!-- Title: _anonymous_0 Pages: 1 -->
<svg width="1138pt" height="494pt"
 viewBox="0.00 0.00 1138.00 494.00" xmlns="http://www.w3.org/2000/svg" xmlns:xlink="http://www.w3.org/1999/xlink">
<g id="graph1" class="graph" transform="scale(1 1) rotate(0) translate(4 490)">
<title>_anonymous_0</title>
<polygon fill="white" stroke="white" points="-4,5 -4,-490 1135,-490 1135,5 -4,5"/>
<!-- marie -->
<g id="node1" class="node"><title>marie</title>
<ellipse fill="pink" stroke="pink" cx="305" cy="-467" rx="39.0967" ry="18.3848"/>
<text text-anchor="middle" x="305" y="-463.4" font-family="Times Roman,serif" font-size="14.00">marie</text>
</g>
<!-- marie&#45;abel -->
<g id="node31" class="node"><title>marie&#45;abel</title>
<ellipse fill="purple" stroke="purple" cx="394" cy="-411" rx="0" ry="0.5"/>
</g>
<!-- marie&#45;&gt;marie&#45;abel -->
<g id="edge38" class="edge"><title>marie&#45;&gt;marie&#45;abel</title>
<path fill="none" stroke="red" d="M328.85,-451.993C353.566,-436.442 389.2,-414.02 393.558,-411.278"/>
</g>
<!-- jeanne -->
<g id="node2" class="node"><title>jeanne</title>
<ellipse fill="pink" stroke="pink" cx="492" cy="-355" rx="44.0472" ry="18.3848"/>
<text text-anchor="middle" x="492" y="-351.4" font-family="Times Roman,serif" font-size="14.00">jeanne</text>
</g>
<!-- jeanne&#45;rene -->
<g id="node35" class="node"><title>jeanne&#45;rene</title>
<ellipse fill="purple" stroke="purple" cx="548" cy="-299" rx="0" ry="0.5"/>
</g>
<!-- jeanne&#45;&gt;jeanne&#45;rene -->
<g id="edge66" class="edge"><title>jeanne&#45;&gt;jeanne&#45;rene</title>
<path fill="none" stroke="red" d="M509.106,-337.894C524.031,-322.969 543.848,-303.152 547.432,-299.568"/>
</g>
<!-- marie&#45;paule -->
<g id="node3" class="node"><title>marie&#45;paule</title>
<ellipse fill="pink" stroke="pink" cx="418" cy="-243" rx="68.7979" ry="18.3848"/>
<text text-anchor="middle" x="418" y="-239.4" font-family="Times Roman,serif" font-size="14.00">marie&#45;paule</text>
</g>
<!-- chloe -->
<g id="node4" class="node"><title>chloe</title>
<ellipse fill="pink" stroke="pink" cx="363" cy="-19" rx="36.977" ry="18.3848"/>
<text text-anchor="middle" x="363" y="-15.4" font-family="Times Roman,serif" font-size="14.00">chloe</text>
</g>
<!-- louise -->
<g id="node5" class="node"><title>louise</title>
<ellipse fill="pink" stroke="pink" cx="483" cy="-467" rx="39.0967" ry="18.3848"/>
<text text-anchor="middle" x="483" y="-463.4" font-family="Times Roman,serif" font-size="14.00">louise</text>
</g>
<!-- louise&#45;charles&#45;louis -->
<g id="node33" class="node"><title>louise&#45;charles&#45;louis</title>
<ellipse fill="purple" stroke="purple" cx="588" cy="-411" rx="0" ry="0.5"/>
</g>
<!-- louise&#45;&gt;louise&#45;charles&#45;louis -->
<g id="edge50" class="edge"><title>louise&#45;&gt;louise&#45;charles&#45;louis</title>
<path fill="none" stroke="red" d="M508.955,-453.157C538.105,-437.611 582.072,-414.162 587.454,-411.291"/>
</g>
<!-- christelle -->
<g id="node6" class="node"><title>christelle</title>
<ellipse fill="pink" stroke="pink" cx="212" cy="-131" rx="55.8614" ry="18.3848"/>
<text text-anchor="middle" x="212" y="-127.4" font-family="Times Roman,serif" font-size="14.00">christelle</text>
</g>
<!-- christelle&#45;antoine -->
<g id="node38" class="node"><title>christelle&#45;antoine</title>
<ellipse fill="purple" stroke="purple" cx="407" cy="-75" rx="0" ry="0.5"/>
</g>
<!-- christelle&#45;&gt;christelle&#45;antoine -->
<g id="edge58" class="edge"><title>christelle&#45;&gt;christelle&#45;antoine</title>
<path fill="none" stroke="red" d="M253.946,-118.691C261.613,-116.455 269.544,-114.151 277,-112 331.112,-96.3911 398.022,-77.5294 406.174,-75.2326"/>
</g>
<!-- laurence -->
<g id="node7" class="node"><title>laurence</title>
<ellipse fill="pink" stroke="pink" cx="662" cy="-243" rx="53.2379" ry="18.3848"/>
<text text-anchor="middle" x="662" y="-239.4" font-family="Times Roman,serif" font-size="14.00">laurence</text>
</g>
<!-- laurence&#45;marc -->
<g id="node39" class="node"><title>laurence&#45;marc</title>
<ellipse fill="purple" stroke="purple" cx="662" cy="-187" rx="0" ry="0.5"/>
</g>
<!-- laurence&#45;&gt;laurence&#45;marc -->
<g id="edge54" class="edge"><title>laurence&#45;&gt;laurence&#45;marc</title>
<path fill="none" stroke="red" d="M662,-224.353C662,-209.59 662,-190.907 662,-187.534"/>
</g>
<!-- marthe -->
<g id="node8" class="node"><title>marthe</title>
<ellipse fill="pink" stroke="pink" cx="782" cy="-355" rx="46.8775" ry="18.3848"/>
<text text-anchor="middle" x="782" y="-351.4" font-family="Times Roman,serif" font-size="14.00">marthe</text>
</g>
<!-- marthe&#45;robert -->
<g id="node34" class="node"><title>marthe&#45;robert</title>
<ellipse fill="purple" stroke="purple" cx="782" cy="-299" rx="0" ry="0.5"/>
</g>
<!-- marthe&#45;&gt;marthe&#45;robert -->
<g id="edge70" class="edge"><title>marthe&#45;&gt;marthe&#45;robert</title>
<path fill="none" stroke="red" d="M782,-336.353C782,-321.59 782,-302.907 782,-299.534"/>
</g>
<!-- madeleine -->
<g id="node9" class="node"><title>madeleine</title>
<ellipse fill="pink" stroke="pink" cx="263" cy="-355" rx="61.0181" ry="18.3848"/>
<text text-anchor="middle" x="263" y="-351.4" font-family="Times Roman,serif" font-size="14.00">madeleine</text>
</g>
<!-- madeleine&#45;marius -->
<g id="node37" class="node"><title>madeleine&#45;marius</title>
<ellipse fill="purple" stroke="purple" cx="269" cy="-299" rx="0" ry="0.5"/>
</g>
<!-- madeleine&#45;&gt;madeleine&#45;marius -->
<g id="edge46" class="edge"><title>madeleine&#45;&gt;madeleine&#45;marius</title>
<path fill="none" stroke="red" d="M264.998,-336.353C266.58,-321.59 268.581,-302.907 268.943,-299.534"/>
</g>
<!-- muguette -->
<g id="node10" class="node"><title>muguette</title>
<ellipse fill="pink" stroke="pink" cx="269" cy="-243" rx="58.8978" ry="18.3848"/>
<text text-anchor="middle" x="269" y="-239.4" font-family="Times Roman,serif" font-size="14.00">muguette</text>
</g>
<!-- muguette&#45;claude -->
<g id="node36" class="node"><title>muguette&#45;claude</title>
<ellipse fill="purple" stroke="purple" cx="269" cy="-187" rx="0" ry="0.5"/>
</g>
<!-- muguette&#45;&gt;muguette&#45;claude -->
<g id="edge74" class="edge"><title>muguette&#45;&gt;muguette&#45;claude</title>
<path fill="none" stroke="red" d="M269,-224.353C269,-209.59 269,-190.907 269,-187.534"/>
</g>
<!-- blanche -->
<g id="node11" class="node"><title>blanche</title>
<ellipse fill="pink" stroke="pink" cx="135" cy="-355" rx="48.9975" ry="18.3848"/>
<text text-anchor="middle" x="135" y="-351.4" font-family="Times Roman,serif" font-size="14.00">blanche</text>
</g>
<!-- blanche&#45;louis -->
<g id="node32" class="node"><title>blanche&#45;louis</title>
<ellipse fill="purple" stroke="purple" cx="135" cy="-299" rx="0" ry="0.5"/>
</g>
<!-- blanche&#45;&gt;blanche&#45;louis -->
<g id="edge34" class="edge"><title>blanche&#45;&gt;blanche&#45;louis</title>
<path fill="none" stroke="red" d="M135,-336.353C135,-321.59 135,-302.907 135,-299.534"/>
</g>
<!-- elise -->
<g id="node12" class="node"><title>elise</title>
<ellipse fill="pink" stroke="pink" cx="735" cy="-467" rx="33.234" ry="18.3848"/>
<text text-anchor="middle" x="735" y="-463.4" font-family="Times Roman,serif" font-size="14.00">elise</text>
</g>
<!-- elise&#45;cesar -->
<g id="node30" class="node"><title>elise&#45;cesar</title>
<ellipse fill="purple" stroke="purple" cx="782" cy="-411" rx="0" ry="0.5"/>
</g>
<!-- elise&#45;&gt;elise&#45;cesar -->
<g id="edge42" class="edge"><title>elise&#45;&gt;elise&#45;cesar</title>
<path fill="none" stroke="red" d="M749.102,-450.198C761.648,-435.249 778.473,-415.202 781.518,-411.575"/>
</g>
<!-- adele -->
<g id="node13" class="node"><title>adele</title>
<ellipse fill="pink" stroke="pink" cx="915" cy="-467" rx="36.977" ry="18.3848"/>
<text text-anchor="middle" x="915" y="-463.4" font-family="Times Roman,serif" font-size="14.00">adele</text>
</g>
<!-- adele&#45;robert&#45;charles -->
<g id="node29" class="node"><title>adele&#45;robert&#45;charles</title>
<ellipse fill="purple" stroke="purple" cx="915" cy="-411" rx="0" ry="0.5"/>
</g>
<!-- adele&#45;&gt;adele&#45;robert&#45;charles -->
<g id="edge62" class="edge"><title>adele&#45;&gt;adele&#45;robert&#45;charles</title>
<path fill="none" stroke="red" d="M915,-448.353C915,-433.59 915,-414.907 915,-411.534"/>
</g>
<!-- rene -->
<g id="node14" class="node"><title>rene</title>
<ellipse fill="cyan" stroke="cyan" cx="588" cy="-355" rx="33.9411" ry="18.3848"/>
<text text-anchor="middle" x="588" y="-351.4" font-family="Times Roman,serif" font-size="14.00">rene</text>
</g>
<!-- rene&#45;&gt;jeanne&#45;rene -->
<g id="edge68" class="edge"><title>rene&#45;&gt;jeanne&#45;rene</title>
<path fill="none" stroke="red" d="M575.563,-337.588C564.922,-322.69 550.931,-303.103 548.401,-299.561"/>
</g>
<!-- marius -->
<g id="node15" class="node"><title>marius</title>
<ellipse fill="cyan" stroke="cyan" cx="386" cy="-355" rx="44.0472" ry="18.3848"/>
<text text-anchor="middle" x="386" y="-351.4" font-family="Times Roman,serif" font-size="14.00">marius</text>
</g>
<!-- marius&#45;&gt;madeleine&#45;marius -->
<g id="edge48" class="edge"><title>marius&#45;&gt;madeleine&#45;marius</title>
<path fill="none" stroke="red" d="M356.778,-341.013C324.289,-325.463 275.568,-302.144 269.605,-299.29"/>
</g>
<!-- cesar -->
<g id="node16" class="node"><title>cesar</title>
<ellipse fill="cyan" stroke="cyan" cx="823" cy="-467" rx="36.977" ry="18.3848"/>
<text text-anchor="middle" x="823" y="-463.4" font-family="Times Roman,serif" font-size="14.00">cesar</text>
</g>
<!-- cesar&#45;&gt;elise&#45;cesar -->
<g id="edge44" class="edge"><title>cesar&#45;&gt;elise&#45;cesar</title>
<path fill="none" stroke="red" d="M810.252,-449.588C799.345,-434.69 785.004,-415.103 782.411,-411.561"/>
</g>
<!-- marc -->
<g id="node17" class="node"><title>marc</title>
<ellipse fill="cyan" stroke="cyan" cx="770" cy="-243" rx="34.8574" ry="18.3848"/>
<text text-anchor="middle" x="770" y="-239.4" font-family="Times Roman,serif" font-size="14.00">marc</text>
</g>
<!-- marc&#45;&gt;laurence&#45;marc -->
<g id="edge56" class="edge"><title>marc&#45;&gt;laurence&#45;marc</title>
<path fill="none" stroke="red" d="M744.951,-230.012C715.041,-214.503 668.306,-190.27 662.581,-187.301"/>
</g>
<!-- antoine -->
<g id="node18" class="node"><title>antoine</title>
<ellipse fill="cyan" stroke="cyan" cx="603" cy="-131" rx="48.7904" ry="18.3848"/>
<text text-anchor="middle" x="603" y="-127.4" font-family="Times Roman,serif" font-size="14.00">antoine</text>
</g>
<!-- antoine&#45;&gt;christelle&#45;antoine -->
<g id="edge60" class="edge"><title>antoine&#45;&gt;christelle&#45;antoine</title>
<path fill="none" stroke="red" d="M563.808,-119.802C509.291,-104.226 416.245,-77.6415 407.642,-75.1834"/>
</g>
<!-- xavier -->
<g id="node19" class="node"><title>xavier</title>
<ellipse fill="cyan" stroke="cyan" cx="327" cy="-131" rx="41.2167" ry="18.3848"/>
<text text-anchor="middle" x="327" y="-127.4" font-family="Times Roman,serif" font-size="14.00">xavier</text>
</g>
<!-- abel -->
<g id="node20" class="node"><title>abel</title>
<ellipse fill="cyan" stroke="cyan" cx="394" cy="-467" rx="31.8198" ry="18.3848"/>
<text text-anchor="middle" x="394" y="-463.4" font-family="Times Roman,serif" font-size="14.00">abel</text>
</g>
<!-- abel&#45;&gt;marie&#45;abel -->
<g id="edge40" class="edge"><title>abel&#45;&gt;marie&#45;abel</title>
<path fill="none" stroke="red" d="M394,-448.353C394,-433.59 394,-414.907 394,-411.534"/>
</g>
<!-- arnaud -->
<g id="node21" class="node"><title>arnaud</title>
<ellipse fill="cyan" stroke="cyan" cx="432" cy="-131" rx="45.9619" ry="18.3848"/>
<text text-anchor="middle" x="432" y="-127.4" font-family="Times Roman,serif" font-size="14.00">arnaud</text>
</g>
<!-- michel -->
<g id="node22" class="node"><title>michel</title>
<ellipse fill="cyan" stroke="cyan" cx="548" cy="-243" rx="43.1335" ry="18.3848"/>
<text text-anchor="middle" x="548" y="-239.4" font-family="Times Roman,serif" font-size="14.00">michel</text>
</g>
<!-- robert -->
<g id="node23" class="node"><title>robert</title>
<ellipse fill="cyan" stroke="cyan" cx="913" cy="-355" rx="41.2167" ry="18.3848"/>
<text text-anchor="middle" x="913" y="-351.4" font-family="Times Roman,serif" font-size="14.00">robert</text>
</g>
<!-- robert&#45;&gt;marthe&#45;robert -->
<g id="edge72" class="edge"><title>robert&#45;&gt;marthe&#45;robert</title>
<path fill="none" stroke="red" d="M882.946,-342.152C846.688,-326.653 789.692,-302.288 782.709,-299.303"/>
</g>
<!-- theo -->
<g id="node24" class="node"><title>theo</title>
<ellipse fill="cyan" stroke="cyan" cx="452" cy="-19" rx="33.9411" ry="18.3848"/>
<text text-anchor="middle" x="452" y="-15.4" font-family="Times Roman,serif" font-size="14.00">theo</text>
</g>
<!-- claude -->
<g id="node25" class="node"><title>claude</title>
<ellipse fill="cyan" stroke="cyan" cx="142" cy="-243" rx="43.1335" ry="18.3848"/>
<text text-anchor="middle" x="142" y="-239.4" font-family="Times Roman,serif" font-size="14.00">claude</text>
</g>
<!-- claude&#45;&gt;muguette&#45;claude -->
<g id="edge76" class="edge"><title>claude&#45;&gt;muguette&#45;claude</title>
<path fill="none" stroke="red" d="M172.097,-229.729C207.306,-214.204 261.667,-190.234 268.324,-187.298"/>
</g>
<!-- robert&#45;charles -->
<g id="node26" class="node"><title>robert&#45;charles</title>
<ellipse fill="cyan" stroke="cyan" cx="1050" cy="-467" rx="79.9031" ry="18.3848"/>
<text text-anchor="middle" x="1050" y="-463.4" font-family="Times Roman,serif" font-size="14.00">robert&#45;charles</text>
</g>
<!-- robert&#45;charles&#45;&gt;adele&#45;robert&#45;charles -->
<g id="edge64" class="edge"><title>robert&#45;charles&#45;&gt;adele&#45;robert&#45;charles</title>
<path fill="none" stroke="red" d="M1010.95,-450.802C973.574,-435.297 921.947,-413.882 915.64,-411.265"/>
</g>
<!-- louis -->
<g id="node27" class="node"><title>louis</title>
<ellipse fill="cyan" stroke="cyan" cx="34" cy="-355" rx="33.9411" ry="18.3848"/>
<text text-anchor="middle" x="34" y="-351.4" font-family="Times Roman,serif" font-size="14.00">louis</text>
</g>
<!-- louis&#45;&gt;blanche&#45;louis -->
<g id="edge36" class="edge"><title>louis&#45;&gt;blanche&#45;louis</title>
<path fill="none" stroke="red" d="M57.9356,-341.729C85.936,-326.204 129.168,-302.234 134.463,-299.298"/>
</g>
<!-- charles&#45;louis -->
<g id="node28" class="node"><title>charles&#45;louis</title>
<ellipse fill="cyan" stroke="cyan" cx="612" cy="-467" rx="72.1249" ry="18.3848"/>
<text text-anchor="middle" x="612" y="-463.4" font-family="Times Roman,serif" font-size="14.00">charles&#45;louis</text>
</g>
<!-- charles&#45;louis&#45;&gt;louise&#45;charles&#45;louis -->
<g id="edge52" class="edge"><title>charles&#45;louis&#45;&gt;louise&#45;charles&#45;louis</title>
<path fill="none" stroke="red" d="M604.008,-448.353C597.681,-433.59 589.675,-414.907 588.229,-411.534"/>
</g>
<!-- adele&#45;robert&#45;charles&#45;&gt;robert -->
<g id="edge18" class="edge"><title>adele&#45;robert&#45;charles&#45;&gt;robert</title>
<path fill="none" stroke="red" d="M914.978,-410.371C914.849,-406.766 914.192,-388.376 913.67,-373.764"/>
</g>
<!-- elise&#45;cesar&#45;&gt;marthe -->
<g id="edge20" class="edge"><title>elise&#45;cesar&#45;&gt;marthe</title>
<path fill="none" stroke="red" d="M782,-410.371C782,-406.766 782,-388.376 782,-373.764"/>
</g>
<!-- marie&#45;abel&#45;&gt;jeanne -->
<g id="edge6" class="edge"><title>marie&#45;abel&#45;&gt;jeanne</title>
<path fill="none" stroke="red" d="M394.626,-410.642C400.005,-407.568 438.902,-385.342 465.875,-369.929"/>
</g>
<!-- blanche&#45;louis&#45;&gt;claude -->
<g id="edge14" class="edge"><title>blanche&#45;louis&#45;&gt;claude</title>
<path fill="none" stroke="red" d="M135.079,-298.371C135.529,-294.766 137.828,-276.376 139.654,-261.764"/>
</g>
<!-- louise&#45;charles&#45;louis&#45;&gt;rene -->
<g id="edge22" class="edge"><title>louise&#45;charles&#45;louis&#45;&gt;rene</title>
<path fill="none" stroke="red" d="M588,-410.371C588,-406.766 588,-388.376 588,-373.764"/>
</g>
<!-- marthe&#45;robert&#45;&gt;marc -->
<g id="edge28" class="edge"><title>marthe&#45;robert&#45;&gt;marc</title>
<path fill="none" stroke="red" d="M781.865,-298.371C781.088,-294.742 777.099,-276.13 773.958,-261.472"/>
</g>
<!-- jeanne&#45;rene&#45;&gt;marie&#45;paule -->
<g id="edge26" class="edge"><title>jeanne&#45;rene&#45;&gt;marie&#45;paule</title>
<path fill="none" stroke="red" d="M547.17,-298.642C540.164,-295.624 490.298,-274.144 454.623,-258.776"/>
</g>
<!-- jeanne&#45;rene&#45;&gt;laurence -->
<g id="edge10" class="edge"><title>jeanne&#45;rene&#45;&gt;laurence</title>
<path fill="none" stroke="red" d="M548.728,-298.642C554.948,-295.587 599.685,-273.611 631.037,-258.21"/>
</g>
<!-- jeanne&#45;rene&#45;&gt;michel -->
<g id="edge8" class="edge"><title>jeanne&#45;rene&#45;&gt;michel</title>
<path fill="none" stroke="red" d="M548,-298.371C548,-294.766 548,-276.376 548,-261.764"/>
</g>
<!-- muguette&#45;claude&#45;&gt;christelle -->
<g id="edge2" class="edge"><title>muguette&#45;claude&#45;&gt;christelle</title>
<path fill="none" stroke="red" d="M268.36,-186.371C264.593,-182.67 244.963,-163.384 229.918,-148.603"/>
</g>
<!-- muguette&#45;claude&#45;&gt;xavier -->
<g id="edge24" class="edge"><title>muguette&#45;claude&#45;&gt;xavier</title>
<path fill="none" stroke="red" d="M269.651,-186.371C273.534,-182.622 293.981,-162.881 309.362,-148.03"/>
</g>
<!-- muguette&#45;claude&#45;&gt;arnaud -->
<g id="edge30" class="edge"><title>muguette&#45;claude&#45;&gt;arnaud</title>
<path fill="none" stroke="red" d="M269.686,-186.766C276.456,-184.454 332.02,-165.474 377,-150 383.496,-147.765 390.421,-145.377 397.09,-143.075"/>
</g>
<!-- madeleine&#45;marius&#45;&gt;muguette -->
<g id="edge4" class="edge"><title>madeleine&#45;marius&#45;&gt;muguette</title>
<path fill="none" stroke="red" d="M269,-298.371C269,-294.766 269,-276.376 269,-261.764"/>
</g>
<!-- christelle&#45;antoine&#45;&gt;chloe -->
<g id="edge16" class="edge"><title>christelle&#45;antoine&#45;&gt;chloe</title>
<path fill="none" stroke="red" d="M406.506,-74.3711C403.579,-70.646 388.247,-51.1332 376.606,-36.3161"/>
</g>
<!-- christelle&#45;antoine&#45;&gt;theo -->
<g id="edge32" class="edge"><title>christelle&#45;antoine&#45;&gt;theo</title>
<path fill="none" stroke="red" d="M407.505,-74.3711C410.518,-70.622 426.382,-50.8807 438.315,-36.0299"/>
</g>
<!-- laurence&#45;marc&#45;&gt;antoine -->
<g id="edge12" class="edge"><title>laurence&#45;marc&#45;&gt;antoine</title>
<path fill="none" stroke="red" d="M661.337,-186.371C657.413,-182.646 636.855,-163.133 621.244,-148.316"/>
</g>
</g>
</svg>
