<?xml version="1.0" encoding="UTF-8" standalone="no"?>
<!DOCTYPE svg PUBLIC "-//W3C//DTD SVG 1.1//EN"
 "http://www.w3.org/Graphics/SVG/1.1/DTD/svg11.dtd">
<!-- Generated by graphviz version 2.26.3 (20100126.1600)
 -->
<!-- Title: _anonymous_0 Pages: 1 -->
<svg width="1236pt" height="342pt"
 viewBox="0.00 0.00 1236.00 342.00" xmlns="http://www.w3.org/2000/svg" xmlns:xlink="http://www.w3.org/1999/xlink">
<g id="graph1" class="graph" transform="scale(1 1) rotate(0) translate(4 338)">
<title>_anonymous_0</title>
<polygon fill="white" stroke="white" points="-4,5 -4,-338 1233,-338 1233,5 -4,5"/>
<!-- marie -->
<g id="node1" class="node"><title>marie</title>
<ellipse fill="pink" stroke="pink" cx="403" cy="-315" rx="39.0967" ry="18.3848"/>
<text text-anchor="middle" x="403" y="-311.4" font-family="Times Roman,serif" font-size="14.00">marie</text>
</g>
<!-- jeanne -->
<g id="node2" class="node"><title>jeanne</title>
<ellipse fill="pink" stroke="pink" cx="492" cy="-241" rx="44.0472" ry="18.3848"/>
<text text-anchor="middle" x="492" y="-237.4" font-family="Times Roman,serif" font-size="14.00">jeanne</text>
</g>
<!-- marie&#45;&gt;jeanne -->
<g id="edge6" class="edge"><title>marie&#45;&gt;jeanne</title>
<path fill="none" stroke="black" d="M422.752,-298.577C434.881,-288.492 450.607,-275.417 464.006,-264.276"/>
<polygon fill="black" stroke="black" points="466.544,-266.718 471.995,-257.633 462.068,-261.335 466.544,-266.718"/>
</g>
<!-- marie&#45;paule -->
<g id="node3" class="node"><title>marie&#45;paule</title>
<ellipse fill="pink" stroke="pink" cx="434" cy="-167" rx="68.7979" ry="18.3848"/>
<text text-anchor="middle" x="434" y="-163.4" font-family="Times Roman,serif" font-size="14.00">marie&#45;paule</text>
</g>
<!-- jeanne&#45;&gt;marie&#45;paule -->
<g id="edge8" class="edge"><title>jeanne&#45;&gt;marie&#45;paule</title>
<path fill="none" stroke="black" d="M477.96,-223.087C470.94,-214.131 462.311,-203.12 454.561,-193.233"/>
<polygon fill="black" stroke="black" points="457.237,-190.974 448.314,-185.262 451.728,-195.292 457.237,-190.974"/>
</g>
<!-- laurence -->
<g id="node7" class="node"><title>laurence</title>
<ellipse fill="pink" stroke="pink" cx="574" cy="-167" rx="53.2379" ry="18.3848"/>
<text text-anchor="middle" x="574" y="-163.4" font-family="Times Roman,serif" font-size="14.00">laurence</text>
</g>
<!-- jeanne&#45;&gt;laurence -->
<g id="edge12" class="edge"><title>jeanne&#45;&gt;laurence</title>
<path fill="none" stroke="black" d="M510.607,-224.208C521.383,-214.484 535.136,-202.073 547.076,-191.297"/>
<polygon fill="black" stroke="black" points="549.532,-193.795 554.611,-184.497 544.842,-188.599 549.532,-193.795"/>
</g>
<!-- michel -->
<g id="node22" class="node"><title>michel</title>
<ellipse fill="cyan" stroke="cyan" cx="688" cy="-167" rx="43.1335" ry="18.3848"/>
<text text-anchor="middle" x="688" y="-163.4" font-family="Times Roman,serif" font-size="14.00">michel</text>
</g>
<!-- jeanne&#45;&gt;michel -->
<g id="edge10" class="edge"><title>jeanne&#45;&gt;michel</title>
<path fill="none" stroke="black" d="M524.806,-228.614C557.977,-216.09 609.385,-196.681 645.623,-183"/>
<polygon fill="black" stroke="black" points="647.295,-186.11 655.414,-179.303 644.822,-179.561 647.295,-186.11"/>
</g>
<!-- chloe -->
<g id="node4" class="node"><title>chloe</title>
<ellipse fill="pink" stroke="pink" cx="321" cy="-19" rx="36.977" ry="18.3848"/>
<text text-anchor="middle" x="321" y="-15.4" font-family="Times Roman,serif" font-size="14.00">chloe</text>
</g>
<!-- louise -->
<g id="node5" class="node"><title>louise</title>
<ellipse fill="pink" stroke="pink" cx="581" cy="-315" rx="39.0967" ry="18.3848"/>
<text text-anchor="middle" x="581" y="-311.4" font-family="Times Roman,serif" font-size="14.00">louise</text>
</g>
<!-- rene -->
<g id="node14" class="node"><title>rene</title>
<ellipse fill="cyan" stroke="cyan" cx="588" cy="-241" rx="33.9411" ry="18.3848"/>
<text text-anchor="middle" x="588" y="-237.4" font-family="Times Roman,serif" font-size="14.00">rene</text>
</g>
<!-- louise&#45;&gt;rene -->
<g id="edge14" class="edge"><title>louise&#45;&gt;rene</title>
<path fill="none" stroke="black" d="M582.766,-296.327C583.529,-288.264 584.439,-278.648 585.284,-269.711"/>
<polygon fill="black" stroke="black" points="588.777,-269.953 586.234,-259.667 581.808,-269.293 588.777,-269.953"/>
</g>
<!-- christelle -->
<g id="node6" class="node"><title>christelle</title>
<ellipse fill="pink" stroke="pink" cx="186" cy="-93" rx="55.8614" ry="18.3848"/>
<text text-anchor="middle" x="186" y="-89.4" font-family="Times Roman,serif" font-size="14.00">christelle</text>
</g>
<!-- christelle&#45;&gt;chloe -->
<g id="edge26" class="edge"><title>christelle&#45;&gt;chloe</title>
<path fill="none" stroke="black" d="M214.961,-77.1251C236.07,-65.5543 264.741,-49.8382 286.948,-37.6653"/>
<polygon fill="black" stroke="black" points="288.636,-40.7317 295.723,-32.8557 285.271,-34.5934 288.636,-40.7317"/>
</g>
<!-- theo -->
<g id="node24" class="node"><title>theo</title>
<ellipse fill="cyan" stroke="cyan" cx="478" cy="-19" rx="33.9411" ry="18.3848"/>
<text text-anchor="middle" x="478" y="-15.4" font-family="Times Roman,serif" font-size="14.00">theo</text>
</g>
<!-- christelle&#45;&gt;theo -->
<g id="edge4" class="edge"><title>christelle&#45;&gt;theo</title>
<path fill="none" stroke="black" d="M227.529,-80.5475C235.311,-78.3033 243.39,-76.033 251,-74 315.466,-56.7783 390.848,-38.9716 436.476,-28.4476"/>
<polygon fill="black" stroke="black" points="437.339,-31.8405 446.3,-26.1882 435.77,-25.0186 437.339,-31.8405"/>
</g>
<!-- antoine -->
<g id="node18" class="node"><title>antoine</title>
<ellipse fill="cyan" stroke="cyan" cx="546" cy="-93" rx="48.7904" ry="18.3848"/>
<text text-anchor="middle" x="546" y="-89.4" font-family="Times Roman,serif" font-size="14.00">antoine</text>
</g>
<!-- laurence&#45;&gt;antoine -->
<g id="edge18" class="edge"><title>laurence&#45;&gt;antoine</title>
<path fill="none" stroke="black" d="M566.934,-148.327C563.794,-140.026 560.03,-130.078 556.565,-120.921"/>
<polygon fill="black" stroke="black" points="559.779,-119.525 552.966,-111.411 553.232,-122.003 559.779,-119.525"/>
</g>
<!-- marthe -->
<g id="node8" class="node"><title>marthe</title>
<ellipse fill="pink" stroke="pink" cx="870" cy="-241" rx="46.8775" ry="18.3848"/>
<text text-anchor="middle" x="870" y="-237.4" font-family="Times Roman,serif" font-size="14.00">marthe</text>
</g>
<!-- marc -->
<g id="node17" class="node"><title>marc</title>
<ellipse fill="cyan" stroke="cyan" cx="870" cy="-167" rx="34.8574" ry="18.3848"/>
<text text-anchor="middle" x="870" y="-163.4" font-family="Times Roman,serif" font-size="14.00">marc</text>
</g>
<!-- marthe&#45;&gt;marc -->
<g id="edge16" class="edge"><title>marthe&#45;&gt;marc</title>
<path fill="none" stroke="black" d="M870,-222.327C870,-214.264 870,-204.648 870,-195.711"/>
<polygon fill="black" stroke="black" points="873.5,-195.667 870,-185.667 866.5,-195.667 873.5,-195.667"/>
</g>
<!-- madeleine -->
<g id="node9" class="node"><title>madeleine</title>
<ellipse fill="pink" stroke="pink" cx="61" cy="-241" rx="61.0181" ry="18.3848"/>
<text text-anchor="middle" x="61" y="-237.4" font-family="Times Roman,serif" font-size="14.00">madeleine</text>
</g>
<!-- muguette -->
<g id="node10" class="node"><title>muguette</title>
<ellipse fill="pink" stroke="pink" cx="184" cy="-167" rx="58.8978" ry="18.3848"/>
<text text-anchor="middle" x="184" y="-163.4" font-family="Times Roman,serif" font-size="14.00">muguette</text>
</g>
<!-- madeleine&#45;&gt;muguette -->
<g id="edge2" class="edge"><title>madeleine&#45;&gt;muguette</title>
<path fill="none" stroke="black" d="M88.6036,-224.393C106.091,-213.872 128.896,-200.152 147.824,-188.764"/>
<polygon fill="black" stroke="black" points="149.724,-191.706 156.489,-183.552 146.115,-185.708 149.724,-191.706"/>
</g>
<!-- muguette&#45;&gt;christelle -->
<g id="edge32" class="edge"><title>muguette&#45;&gt;christelle</title>
<path fill="none" stroke="black" d="M184.505,-148.327C184.723,-140.264 184.982,-130.648 185.224,-121.711"/>
<polygon fill="black" stroke="black" points="188.724,-121.758 185.495,-111.667 181.726,-121.569 188.724,-121.758"/>
</g>
<!-- xavier -->
<g id="node19" class="node"><title>xavier</title>
<ellipse fill="cyan" stroke="cyan" cx="301" cy="-93" rx="41.2167" ry="18.3848"/>
<text text-anchor="middle" x="301" y="-89.4" font-family="Times Roman,serif" font-size="14.00">xavier</text>
</g>
<!-- muguette&#45;&gt;xavier -->
<g id="edge20" class="edge"><title>muguette&#45;&gt;xavier</title>
<path fill="none" stroke="black" d="M210.257,-150.393C227.395,-139.553 249.903,-125.318 268.214,-113.736"/>
<polygon fill="black" stroke="black" points="270.243,-116.594 276.824,-108.291 266.502,-110.678 270.243,-116.594"/>
</g>
<!-- arnaud -->
<g id="node21" class="node"><title>arnaud</title>
<ellipse fill="cyan" stroke="cyan" cx="406" cy="-93" rx="45.9619" ry="18.3848"/>
<text text-anchor="middle" x="406" y="-89.4" font-family="Times Roman,serif" font-size="14.00">arnaud</text>
</g>
<!-- muguette&#45;&gt;arnaud -->
<g id="edge22" class="edge"><title>muguette&#45;&gt;arnaud</title>
<path fill="none" stroke="black" d="M225.233,-153.604C259.066,-142.568 308.194,-126.442 351,-112 354.458,-110.833 358.035,-109.618 361.629,-108.39"/>
<polygon fill="black" stroke="black" points="362.788,-111.693 371.111,-105.137 360.517,-105.071 362.788,-111.693"/>
</g>
<!-- blanche -->
<g id="node11" class="node"><title>blanche</title>
<ellipse fill="pink" stroke="pink" cx="295" cy="-241" rx="48.9975" ry="18.3848"/>
<text text-anchor="middle" x="295" y="-237.4" font-family="Times Roman,serif" font-size="14.00">blanche</text>
</g>
<!-- claude -->
<g id="node25" class="node"><title>claude</title>
<ellipse fill="cyan" stroke="cyan" cx="304" cy="-167" rx="43.1335" ry="18.3848"/>
<text text-anchor="middle" x="304" y="-163.4" font-family="Times Roman,serif" font-size="14.00">claude</text>
</g>
<!-- blanche&#45;&gt;claude -->
<g id="edge30" class="edge"><title>blanche&#45;&gt;claude</title>
<path fill="none" stroke="black" d="M297.271,-222.327C298.252,-214.264 299.421,-204.648 300.508,-195.711"/>
<polygon fill="black" stroke="black" points="303.997,-196.017 301.73,-185.667 297.048,-195.172 303.997,-196.017"/>
</g>
<!-- elise -->
<g id="node12" class="node"><title>elise</title>
<ellipse fill="pink" stroke="pink" cx="833" cy="-315" rx="33.234" ry="18.3848"/>
<text text-anchor="middle" x="833" y="-311.4" font-family="Times Roman,serif" font-size="14.00">elise</text>
</g>
<!-- elise&#45;&gt;marthe -->
<g id="edge28" class="edge"><title>elise&#45;&gt;marthe</title>
<path fill="none" stroke="black" d="M841.957,-297.087C846.255,-288.489 851.501,-277.998 856.287,-268.425"/>
<polygon fill="black" stroke="black" points="859.527,-269.772 860.869,-259.262 853.266,-266.641 859.527,-269.772"/>
</g>
<!-- adele -->
<g id="node13" class="node"><title>adele</title>
<ellipse fill="pink" stroke="pink" cx="1013" cy="-315" rx="36.977" ry="18.3848"/>
<text text-anchor="middle" x="1013" y="-311.4" font-family="Times Roman,serif" font-size="14.00">adele</text>
</g>
<!-- robert -->
<g id="node23" class="node"><title>robert</title>
<ellipse fill="cyan" stroke="cyan" cx="1013" cy="-241" rx="41.2167" ry="18.3848"/>
<text text-anchor="middle" x="1013" y="-237.4" font-family="Times Roman,serif" font-size="14.00">robert</text>
</g>
<!-- adele&#45;&gt;robert -->
<g id="edge24" class="edge"><title>adele&#45;&gt;robert</title>
<path fill="none" stroke="black" d="M1013,-296.327C1013,-288.264 1013,-278.648 1013,-269.711"/>
<polygon fill="black" stroke="black" points="1016.5,-269.667 1013,-259.667 1009.5,-269.667 1016.5,-269.667"/>
</g>
<!-- rene&#45;&gt;marie&#45;paule -->
<g id="edge42" class="edge"><title>rene&#45;&gt;marie&#45;paule</title>
<path fill="none" stroke="black" d="M562.224,-228.614C539.016,-217.462 504.446,-200.85 477.047,-187.685"/>
<polygon fill="black" stroke="black" points="478.214,-184.363 467.685,-183.186 475.183,-190.672 478.214,-184.363"/>
</g>
<!-- rene&#45;&gt;laurence -->
<g id="edge50" class="edge"><title>rene&#45;&gt;laurence</title>
<path fill="none" stroke="black" d="M584.467,-222.327C582.942,-214.264 581.123,-204.648 579.432,-195.711"/>
<polygon fill="black" stroke="black" points="582.83,-194.842 577.532,-185.667 575.952,-196.144 582.83,-194.842"/>
</g>
<!-- rene&#45;&gt;michel -->
<g id="edge46" class="edge"><title>rene&#45;&gt;michel</title>
<path fill="none" stroke="black" d="M608.236,-226.025C622.525,-215.452 641.911,-201.106 657.994,-189.204"/>
<polygon fill="black" stroke="black" points="660.102,-191.999 666.058,-183.237 655.938,-186.372 660.102,-191.999"/>
</g>
<!-- marius -->
<g id="node15" class="node"><title>marius</title>
<ellipse fill="cyan" stroke="cyan" cx="184" cy="-241" rx="44.0472" ry="18.3848"/>
<text text-anchor="middle" x="184" y="-237.4" font-family="Times Roman,serif" font-size="14.00">marius</text>
</g>
<!-- marius&#45;&gt;muguette -->
<g id="edge56" class="edge"><title>marius&#45;&gt;muguette</title>
<path fill="none" stroke="black" d="M184,-222.327C184,-214.264 184,-204.648 184,-195.711"/>
<polygon fill="black" stroke="black" points="187.5,-195.667 184,-185.667 180.5,-195.667 187.5,-195.667"/>
</g>
<!-- cesar -->
<g id="node16" class="node"><title>cesar</title>
<ellipse fill="cyan" stroke="cyan" cx="921" cy="-315" rx="36.977" ry="18.3848"/>
<text text-anchor="middle" x="921" y="-311.4" font-family="Times Roman,serif" font-size="14.00">cesar</text>
</g>
<!-- cesar&#45;&gt;marthe -->
<g id="edge48" class="edge"><title>cesar&#45;&gt;marthe</title>
<path fill="none" stroke="black" d="M908.914,-297.463C902.717,-288.472 895.043,-277.337 888.151,-267.337"/>
<polygon fill="black" stroke="black" points="890.91,-265.173 882.354,-258.925 885.147,-269.145 890.91,-265.173"/>
</g>
<!-- marc&#45;&gt;antoine -->
<g id="edge36" class="edge"><title>marc&#45;&gt;antoine</title>
<path fill="none" stroke="black" d="M837.749,-159.634C781.646,-146.82 665.628,-120.322 598.021,-104.881"/>
<polygon fill="black" stroke="black" points="598.535,-101.409 588.007,-102.594 596.977,-108.233 598.535,-101.409"/>
</g>
<!-- antoine&#45;&gt;chloe -->
<g id="edge40" class="edge"><title>antoine&#45;&gt;chloe</title>
<path fill="none" stroke="black" d="M508.846,-80.7804C468.287,-67.4409 403.546,-46.1485 361.655,-32.3711"/>
<polygon fill="black" stroke="black" points="362.638,-29.01 352.045,-29.2105 360.451,-35.6596 362.638,-29.01"/>
</g>
<!-- antoine&#45;&gt;theo -->
<g id="edge44" class="edge"><title>antoine&#45;&gt;theo</title>
<path fill="none" stroke="black" d="M529.885,-75.463C521.059,-65.8586 509.986,-53.8082 500.338,-43.309"/>
<polygon fill="black" stroke="black" points="502.642,-40.6439 493.299,-35.6488 497.488,-45.3803 502.642,-40.6439"/>
</g>
<!-- abel -->
<g id="node20" class="node"><title>abel</title>
<ellipse fill="cyan" stroke="cyan" cx="492" cy="-315" rx="31.8198" ry="18.3848"/>
<text text-anchor="middle" x="492" y="-311.4" font-family="Times Roman,serif" font-size="14.00">abel</text>
</g>
<!-- abel&#45;&gt;jeanne -->
<g id="edge62" class="edge"><title>abel&#45;&gt;jeanne</title>
<path fill="none" stroke="black" d="M492,-296.327C492,-288.264 492,-278.648 492,-269.711"/>
<polygon fill="black" stroke="black" points="495.5,-269.667 492,-259.667 488.5,-269.667 495.5,-269.667"/>
</g>
<!-- robert&#45;&gt;marc -->
<g id="edge52" class="edge"><title>robert&#45;&gt;marc</title>
<path fill="none" stroke="black" d="M985.766,-226.907C962.629,-214.934 929.295,-197.684 904.333,-184.767"/>
<polygon fill="black" stroke="black" points="905.704,-181.536 895.215,-180.048 902.487,-187.753 905.704,-181.536"/>
</g>
<!-- claude&#45;&gt;christelle -->
<g id="edge34" class="edge"><title>claude&#45;&gt;christelle</title>
<path fill="none" stroke="black" d="M279.55,-151.667C262.65,-141.069 239.91,-126.808 221.082,-115.001"/>
<polygon fill="black" stroke="black" points="222.801,-111.948 212.47,-109.6 219.082,-117.878 222.801,-111.948"/>
</g>
<!-- claude&#45;&gt;xavier -->
<g id="edge54" class="edge"><title>claude&#45;&gt;xavier</title>
<path fill="none" stroke="black" d="M303.243,-148.327C302.916,-140.264 302.526,-130.648 302.164,-121.711"/>
<polygon fill="black" stroke="black" points="305.659,-121.517 301.757,-111.667 298.665,-121.801 305.659,-121.517"/>
</g>
<!-- claude&#45;&gt;arnaud -->
<g id="edge58" class="edge"><title>claude&#45;&gt;arnaud</title>
<path fill="none" stroke="black" d="M326.132,-150.943C340.469,-140.542 359.344,-126.849 375.145,-115.385"/>
<polygon fill="black" stroke="black" points="377.52,-117.986 383.558,-109.281 373.409,-112.32 377.52,-117.986"/>
</g>
<!-- robert&#45;charles -->
<g id="node26" class="node"><title>robert&#45;charles</title>
<ellipse fill="cyan" stroke="cyan" cx="1148" cy="-315" rx="79.9031" ry="18.3848"/>
<text text-anchor="middle" x="1148" y="-311.4" font-family="Times Roman,serif" font-size="14.00">robert&#45;charles</text>
</g>
<!-- robert&#45;charles&#45;&gt;robert -->
<g id="edge64" class="edge"><title>robert&#45;charles&#45;&gt;robert</title>
<path fill="none" stroke="black" d="M1116.69,-297.837C1096.2,-286.605 1069.39,-271.91 1048.17,-260.276"/>
<polygon fill="black" stroke="black" points="1049.6,-257.071 1039.15,-255.334 1046.24,-263.21 1049.6,-257.071"/>
</g>
<!-- louis -->
<g id="node27" class="node"><title>louis</title>
<ellipse fill="cyan" stroke="cyan" cx="396" cy="-241" rx="33.9411" ry="18.3848"/>
<text text-anchor="middle" x="396" y="-237.4" font-family="Times Roman,serif" font-size="14.00">louis</text>
</g>
<!-- louis&#45;&gt;claude -->
<g id="edge60" class="edge"><title>louis&#45;&gt;claude</title>
<path fill="none" stroke="black" d="M376.938,-225.667C364.091,-215.334 346.915,-201.519 332.459,-189.891"/>
<polygon fill="black" stroke="black" points="334.3,-186.88 324.314,-183.34 329.913,-192.335 334.3,-186.88"/>
</g>
<!-- charles&#45;louis -->
<g id="node28" class="node"><title>charles&#45;louis</title>
<ellipse fill="cyan" stroke="cyan" cx="710" cy="-315" rx="72.1249" ry="18.3848"/>
<text text-anchor="middle" x="710" y="-311.4" font-family="Times Roman,serif" font-size="14.00">charles&#45;louis</text>
</g>
<!-- charles&#45;louis&#45;&gt;rene -->
<g id="edge38" class="edge"><title>charles&#45;louis&#45;&gt;rene</title>
<path fill="none" stroke="black" d="M681.704,-297.837C663.109,-286.558 638.758,-271.788 619.541,-260.131"/>
<polygon fill="black" stroke="black" points="621.205,-257.047 610.84,-254.854 617.575,-263.032 621.205,-257.047"/>
</g>
</g>
</svg>
