<?xml version="1.0" encoding="UTF-8" standalone="no"?>
<!DOCTYPE svg PUBLIC "-//W3C//DTD SVG 1.1//EN"
 "http://www.w3.org/Graphics/SVG/1.1/DTD/svg11.dtd">
<!-- Generated by graphviz version 2.26.3 (20100126.1600)
 -->
<!-- Title: _anonymous_0 Pages: 1 -->
<svg width="1420pt" height="494pt"
 viewBox="0.00 0.00 1420.00 494.00" xmlns="http://www.w3.org/2000/svg" xmlns:xlink="http://www.w3.org/1999/xlink">
<g id="graph1" class="graph" transform="scale(1 1) rotate(0) translate(4 490)">
<title>_anonymous_0</title>
<polygon fill="white" stroke="white" points="-4,5 -4,-490 1417,-490 1417,5 -4,5"/>
<!-- marie -->
<g id="node1" class="node"><title>marie</title>
<ellipse fill="pink" stroke="pink" cx="587" cy="-467" rx="39.0967" ry="18.3848"/>
<text text-anchor="middle" x="587" y="-463.4" font-family="Times Roman,serif" font-size="14.00">marie</text>
</g>
<!-- marie&#45;abel -->
<g id="node40" class="node"><title>marie&#45;abel</title>
<ellipse fill="purple" stroke="purple" cx="676" cy="-411" rx="0" ry="0.5"/>
</g>
<!-- marie&#45;&gt;marie&#45;abel -->
<g id="edge50" class="edge"><title>marie&#45;&gt;marie&#45;abel</title>
<path fill="none" stroke="red" d="M610.85,-451.993C635.566,-436.442 671.2,-414.02 675.558,-411.278"/>
</g>
<!-- jeanne -->
<g id="node2" class="node"><title>jeanne</title>
<ellipse fill="pink" stroke="pink" cx="688" cy="-355" rx="44.0472" ry="18.3848"/>
<text text-anchor="middle" x="688" y="-351.4" font-family="Times Roman,serif" font-size="14.00">jeanne</text>
</g>
<!-- jeanne&#45;rene -->
<g id="node45" class="node"><title>jeanne&#45;rene</title>
<ellipse fill="purple" stroke="purple" cx="786" cy="-299" rx="0" ry="0.5"/>
</g>
<!-- jeanne&#45;&gt;jeanne&#45;rene -->
<g id="edge86" class="edge"><title>jeanne&#45;&gt;jeanne&#45;rene</title>
<path fill="none" stroke="red" d="M714.262,-339.993C741.477,-324.442 780.715,-302.02 785.513,-299.278"/>
</g>
<!-- marie&#45;paule -->
<g id="node3" class="node"><title>marie&#45;paule</title>
<ellipse fill="pink" stroke="pink" cx="593" cy="-243" rx="68.7979" ry="18.3848"/>
<text text-anchor="middle" x="593" y="-239.4" font-family="Times Roman,serif" font-size="14.00">marie&#45;paule</text>
</g>
<!-- marie&#45;paule&#45;pierre -->
<g id="node44" class="node"><title>marie&#45;paule&#45;pierre</title>
<ellipse fill="purple" stroke="purple" cx="592" cy="-187" rx="0" ry="0.5"/>
</g>
<!-- marie&#45;paule&#45;&gt;marie&#45;paule&#45;pierre -->
<g id="edge74" class="edge"><title>marie&#45;paule&#45;&gt;marie&#45;paule&#45;pierre</title>
<path fill="none" stroke="red" d="M592.667,-224.353C592.403,-209.59 592.07,-190.907 592.01,-187.534"/>
</g>
<!-- chloe -->
<g id="node4" class="node"><title>chloe</title>
<ellipse fill="pink" stroke="pink" cx="542" cy="-19" rx="36.977" ry="18.3848"/>
<text text-anchor="middle" x="542" y="-15.4" font-family="Times Roman,serif" font-size="14.00">chloe</text>
</g>
<!-- louise -->
<g id="node5" class="node"><title>louise</title>
<ellipse fill="pink" stroke="pink" cx="765" cy="-467" rx="39.0967" ry="18.3848"/>
<text text-anchor="middle" x="765" y="-463.4" font-family="Times Roman,serif" font-size="14.00">louise</text>
</g>
<!-- louise&#45;charles&#45;louis -->
<g id="node42" class="node"><title>louise&#45;charles&#45;louis</title>
<ellipse fill="purple" stroke="purple" cx="786" cy="-411" rx="0" ry="0.5"/>
</g>
<!-- louise&#45;&gt;louise&#45;charles&#45;louis -->
<g id="edge62" class="edge"><title>louise&#45;&gt;louise&#45;charles&#45;louis</title>
<path fill="none" stroke="red" d="M771.876,-448.664C777.427,-433.863 784.517,-414.956 785.797,-411.541"/>
</g>
<!-- clemence -->
<g id="node6" class="node"><title>clemence</title>
<ellipse fill="pink" stroke="pink" cx="56" cy="-19" rx="56.0679" ry="18.3848"/>
<text text-anchor="middle" x="56" y="-15.4" font-family="Times Roman,serif" font-size="14.00">clemence</text>
</g>
<!-- christelle -->
<g id="node7" class="node"><title>christelle</title>
<ellipse fill="pink" stroke="pink" cx="470" cy="-131" rx="55.8614" ry="18.3848"/>
<text text-anchor="middle" x="470" y="-127.4" font-family="Times Roman,serif" font-size="14.00">christelle</text>
</g>
<!-- christelle&#45;antoine -->
<g id="node50" class="node"><title>christelle&#45;antoine</title>
<ellipse fill="purple" stroke="purple" cx="497" cy="-75" rx="0" ry="0.5"/>
</g>
<!-- christelle&#45;&gt;christelle&#45;antoine -->
<g id="edge70" class="edge"><title>christelle&#45;&gt;christelle&#45;antoine</title>
<path fill="none" stroke="red" d="M478.841,-112.664C485.977,-97.8627 495.093,-78.9557 496.739,-75.5408"/>
</g>
<!-- laurence -->
<g id="node8" class="node"><title>laurence</title>
<ellipse fill="pink" stroke="pink" cx="949" cy="-243" rx="53.2379" ry="18.3848"/>
<text text-anchor="middle" x="949" y="-239.4" font-family="Times Roman,serif" font-size="14.00">laurence</text>
</g>
<!-- laurence&#45;marc -->
<g id="node51" class="node"><title>laurence&#45;marc</title>
<ellipse fill="purple" stroke="purple" cx="949" cy="-187" rx="0" ry="0.5"/>
</g>
<!-- laurence&#45;&gt;laurence&#45;marc -->
<g id="edge66" class="edge"><title>laurence&#45;&gt;laurence&#45;marc</title>
<path fill="none" stroke="red" d="M949,-224.353C949,-209.59 949,-190.907 949,-187.534"/>
</g>
<!-- marthe -->
<g id="node9" class="node"><title>marthe</title>
<ellipse fill="pink" stroke="pink" cx="1060" cy="-355" rx="46.8775" ry="18.3848"/>
<text text-anchor="middle" x="1060" y="-351.4" font-family="Times Roman,serif" font-size="14.00">marthe</text>
</g>
<!-- marthe&#45;robert -->
<g id="node43" class="node"><title>marthe&#45;robert</title>
<ellipse fill="purple" stroke="purple" cx="1060" cy="-299" rx="0" ry="0.5"/>
</g>
<!-- marthe&#45;&gt;marthe&#45;robert -->
<g id="edge94" class="edge"><title>marthe&#45;&gt;marthe&#45;robert</title>
<path fill="none" stroke="red" d="M1060,-336.353C1060,-321.59 1060,-302.907 1060,-299.534"/>
</g>
<!-- madeleine -->
<g id="node10" class="node"><title>madeleine</title>
<ellipse fill="pink" stroke="pink" cx="123" cy="-355" rx="61.0181" ry="18.3848"/>
<text text-anchor="middle" x="123" y="-351.4" font-family="Times Roman,serif" font-size="14.00">madeleine</text>
</g>
<!-- madeleine&#45;marius -->
<g id="node48" class="node"><title>madeleine&#45;marius</title>
<ellipse fill="purple" stroke="purple" cx="240" cy="-299" rx="0" ry="0.5"/>
</g>
<!-- madeleine&#45;&gt;madeleine&#45;marius -->
<g id="edge58" class="edge"><title>madeleine&#45;&gt;madeleine&#45;marius</title>
<path fill="none" stroke="red" d="M155.902,-339.252C188.345,-323.724 233.872,-301.933 239.436,-299.27"/>
</g>
<!-- muguette -->
<g id="node11" class="node"><title>muguette</title>
<ellipse fill="pink" stroke="pink" cx="240" cy="-243" rx="58.8978" ry="18.3848"/>
<text text-anchor="middle" x="240" y="-239.4" font-family="Times Roman,serif" font-size="14.00">muguette</text>
</g>
<!-- muguette&#45;claude -->
<g id="node47" class="node"><title>muguette&#45;claude</title>
<ellipse fill="purple" stroke="purple" cx="355" cy="-187" rx="0" ry="0.5"/>
</g>
<!-- muguette&#45;&gt;muguette&#45;claude -->
<g id="edge98" class="edge"><title>muguette&#45;&gt;muguette&#45;claude</title>
<path fill="none" stroke="red" d="M272.034,-227.401C303.935,-211.867 348.941,-189.951 354.442,-187.272"/>
</g>
<!-- audrey -->
<g id="node12" class="node"><title>audrey</title>
<ellipse fill="pink" stroke="pink" cx="250" cy="-131" rx="45.9619" ry="18.3848"/>
<text text-anchor="middle" x="250" y="-127.4" font-family="Times Roman,serif" font-size="14.00">audrey</text>
</g>
<!-- audrey&#45;arnaud -->
<g id="node46" class="node"><title>audrey&#45;arnaud</title>
<ellipse fill="purple" stroke="purple" cx="182" cy="-75" rx="0" ry="0.5"/>
</g>
<!-- audrey&#45;&gt;audrey&#45;arnaud -->
<g id="edge78" class="edge"><title>audrey&#45;&gt;audrey&#45;arnaud</title>
<path fill="none" stroke="red" d="M229.598,-114.198C211.446,-99.2494 187.103,-79.2023 182.698,-75.5748"/>
</g>
<!-- brigitte -->
<g id="node13" class="node"><title>brigitte</title>
<ellipse fill="pink" stroke="pink" cx="727" cy="-243" rx="46.8775" ry="18.3848"/>
<text text-anchor="middle" x="727" y="-239.4" font-family="Times Roman,serif" font-size="14.00">brigitte</text>
</g>
<!-- brigitte&#45;michel -->
<g id="node49" class="node"><title>brigitte&#45;michel</title>
<ellipse fill="purple" stroke="purple" cx="776" cy="-187" rx="0" ry="0.5"/>
</g>
<!-- brigitte&#45;&gt;brigitte&#45;michel -->
<g id="edge90" class="edge"><title>brigitte&#45;&gt;brigitte&#45;michel</title>
<path fill="none" stroke="red" d="M742.504,-225.281C755.514,-210.413 772.453,-191.053 775.515,-187.554"/>
</g>
<!-- blanche -->
<g id="node14" class="node"><title>blanche</title>
<ellipse fill="pink" stroke="pink" cx="455" cy="-355" rx="48.9975" ry="18.3848"/>
<text text-anchor="middle" x="455" y="-351.4" font-family="Times Roman,serif" font-size="14.00">blanche</text>
</g>
<!-- blanche&#45;louis -->
<g id="node41" class="node"><title>blanche&#45;louis</title>
<ellipse fill="purple" stroke="purple" cx="360" cy="-299" rx="0" ry="0.5"/>
</g>
<!-- blanche&#45;&gt;blanche&#45;louis -->
<g id="edge46" class="edge"><title>blanche&#45;&gt;blanche&#45;louis</title>
<path fill="none" stroke="red" d="M428.537,-339.401C402.184,-323.867 365.005,-301.951 360.461,-299.272"/>
</g>
<!-- eglantine -->
<g id="node15" class="node"><title>eglantine</title>
<ellipse fill="pink" stroke="pink" cx="825" cy="-131" rx="56.7776" ry="18.3848"/>
<text text-anchor="middle" x="825" y="-127.4" font-family="Times Roman,serif" font-size="14.00">eglantine</text>
</g>
<!-- elise -->
<g id="node16" class="node"><title>elise</title>
<ellipse fill="pink" stroke="pink" cx="1017" cy="-467" rx="33.234" ry="18.3848"/>
<text text-anchor="middle" x="1017" y="-463.4" font-family="Times Roman,serif" font-size="14.00">elise</text>
</g>
<!-- elise&#45;cesar -->
<g id="node39" class="node"><title>elise&#45;cesar</title>
<ellipse fill="purple" stroke="purple" cx="1060" cy="-411" rx="0" ry="0.5"/>
</g>
<!-- elise&#45;&gt;elise&#45;cesar -->
<g id="edge54" class="edge"><title>elise&#45;&gt;elise&#45;cesar</title>
<path fill="none" stroke="red" d="M1030.14,-449.894C1041.6,-434.969 1056.81,-415.152 1059.56,-411.568"/>
</g>
<!-- adele -->
<g id="node17" class="node"><title>adele</title>
<ellipse fill="pink" stroke="pink" cx="1197" cy="-467" rx="36.977" ry="18.3848"/>
<text text-anchor="middle" x="1197" y="-463.4" font-family="Times Roman,serif" font-size="14.00">adele</text>
</g>
<!-- adele&#45;robert&#45;charles -->
<g id="node38" class="node"><title>adele&#45;robert&#45;charles</title>
<ellipse fill="purple" stroke="purple" cx="1197" cy="-411" rx="0" ry="0.5"/>
</g>
<!-- adele&#45;&gt;adele&#45;robert&#45;charles -->
<g id="edge82" class="edge"><title>adele&#45;&gt;adele&#45;robert&#45;charles</title>
<path fill="none" stroke="red" d="M1197,-448.353C1197,-433.59 1197,-414.907 1197,-411.534"/>
</g>
<!-- clarence -->
<g id="node18" class="node"><title>clarence</title>
<ellipse fill="cyan" stroke="cyan" cx="182" cy="-19" rx="51.8276" ry="18.3848"/>
<text text-anchor="middle" x="182" y="-15.4" font-family="Times Roman,serif" font-size="14.00">clarence</text>
</g>
<!-- rene -->
<g id="node19" class="node"><title>rene</title>
<ellipse fill="cyan" stroke="cyan" cx="786" cy="-355" rx="33.9411" ry="18.3848"/>
<text text-anchor="middle" x="786" y="-351.4" font-family="Times Roman,serif" font-size="14.00">rene</text>
</g>
<!-- rene&#45;&gt;jeanne&#45;rene -->
<g id="edge88" class="edge"><title>rene&#45;&gt;jeanne&#45;rene</title>
<path fill="none" stroke="red" d="M786,-336.353C786,-321.59 786,-302.907 786,-299.534"/>
</g>
<!-- william -->
<g id="node20" class="node"><title>william</title>
<ellipse fill="cyan" stroke="cyan" cx="704" cy="-131" rx="45.9619" ry="18.3848"/>
<text text-anchor="middle" x="704" y="-127.4" font-family="Times Roman,serif" font-size="14.00">william</text>
</g>
<!-- marius -->
<g id="node21" class="node"><title>marius</title>
<ellipse fill="cyan" stroke="cyan" cx="246" cy="-355" rx="44.0472" ry="18.3848"/>
<text text-anchor="middle" x="246" y="-351.4" font-family="Times Roman,serif" font-size="14.00">marius</text>
</g>
<!-- marius&#45;&gt;madeleine&#45;marius -->
<g id="edge60" class="edge"><title>marius&#45;&gt;madeleine&#45;marius</title>
<path fill="none" stroke="red" d="M244.002,-336.353C242.42,-321.59 240.419,-302.907 240.057,-299.534"/>
</g>
<!-- cesar -->
<g id="node22" class="node"><title>cesar</title>
<ellipse fill="cyan" stroke="cyan" cx="1105" cy="-467" rx="36.977" ry="18.3848"/>
<text text-anchor="middle" x="1105" y="-463.4" font-family="Times Roman,serif" font-size="14.00">cesar</text>
</g>
<!-- cesar&#45;&gt;elise&#45;cesar -->
<g id="edge56" class="edge"><title>cesar&#45;&gt;elise&#45;cesar</title>
<path fill="none" stroke="red" d="M1091.01,-449.588C1079.04,-434.69 1063.3,-415.103 1060.45,-411.561"/>
</g>
<!-- maxence -->
<g id="node23" class="node"><title>maxence</title>
<ellipse fill="cyan" stroke="cyan" cx="306" cy="-19" rx="53.9477" ry="18.3848"/>
<text text-anchor="middle" x="306" y="-15.4" font-family="Times Roman,serif" font-size="14.00">maxence</text>
</g>
<!-- marc -->
<g id="node24" class="node"><title>marc</title>
<ellipse fill="cyan" stroke="cyan" cx="1057" cy="-243" rx="34.8574" ry="18.3848"/>
<text text-anchor="middle" x="1057" y="-239.4" font-family="Times Roman,serif" font-size="14.00">marc</text>
</g>
<!-- marc&#45;&gt;laurence&#45;marc -->
<g id="edge68" class="edge"><title>marc&#45;&gt;laurence&#45;marc</title>
<path fill="none" stroke="red" d="M1031.95,-230.012C1002.04,-214.503 955.306,-190.27 949.581,-187.301"/>
</g>
<!-- antoine -->
<g id="node25" class="node"><title>antoine</title>
<ellipse fill="cyan" stroke="cyan" cx="949" cy="-131" rx="48.7904" ry="18.3848"/>
<text text-anchor="middle" x="949" y="-127.4" font-family="Times Roman,serif" font-size="14.00">antoine</text>
</g>
<!-- antoine&#45;&gt;christelle&#45;antoine -->
<g id="edge72" class="edge"><title>antoine&#45;&gt;christelle&#45;antoine</title>
<path fill="none" stroke="red" d="M913.759,-118.071C906.325,-115.737 898.469,-113.554 891,-112 724.186,-77.2982 510.814,-75.1075 497.642,-75.0045"/>
</g>
<!-- xavier -->
<g id="node26" class="node"><title>xavier</title>
<ellipse fill="cyan" stroke="cyan" cx="355" cy="-131" rx="41.2167" ry="18.3848"/>
<text text-anchor="middle" x="355" y="-127.4" font-family="Times Roman,serif" font-size="14.00">xavier</text>
</g>
<!-- abel -->
<g id="node27" class="node"><title>abel</title>
<ellipse fill="cyan" stroke="cyan" cx="676" cy="-467" rx="31.8198" ry="18.3848"/>
<text text-anchor="middle" x="676" y="-463.4" font-family="Times Roman,serif" font-size="14.00">abel</text>
</g>
<!-- abel&#45;&gt;marie&#45;abel -->
<g id="edge52" class="edge"><title>abel&#45;&gt;marie&#45;abel</title>
<path fill="none" stroke="red" d="M676,-448.353C676,-433.59 676,-414.907 676,-411.534"/>
</g>
<!-- arnaud -->
<g id="node28" class="node"><title>arnaud</title>
<ellipse fill="cyan" stroke="cyan" cx="140" cy="-131" rx="45.9619" ry="18.3848"/>
<text text-anchor="middle" x="140" y="-127.4" font-family="Times Roman,serif" font-size="14.00">arnaud</text>
</g>
<!-- arnaud&#45;&gt;audrey&#45;arnaud -->
<g id="edge80" class="edge"><title>arnaud&#45;&gt;audrey&#45;arnaud</title>
<path fill="none" stroke="red" d="M153.289,-113.281C164.44,-98.4131 178.96,-79.0535 181.584,-75.5543"/>
</g>
<!-- michel -->
<g id="node29" class="node"><title>michel</title>
<ellipse fill="cyan" stroke="cyan" cx="835" cy="-243" rx="43.1335" ry="18.3848"/>
<text text-anchor="middle" x="835" y="-239.4" font-family="Times Roman,serif" font-size="14.00">michel</text>
</g>
<!-- michel&#45;&gt;brigitte&#45;michel -->
<g id="edge92" class="edge"><title>michel&#45;&gt;brigitte&#45;michel</title>
<path fill="none" stroke="red" d="M816.977,-225.894C801.253,-210.969 780.375,-191.152 776.598,-187.568"/>
</g>
<!-- robert -->
<g id="node30" class="node"><title>robert</title>
<ellipse fill="cyan" stroke="cyan" cx="1172" cy="-355" rx="41.2167" ry="18.3848"/>
<text text-anchor="middle" x="1172" y="-351.4" font-family="Times Roman,serif" font-size="14.00">robert</text>
</g>
<!-- robert&#45;&gt;marthe&#45;robert -->
<g id="edge96" class="edge"><title>robert&#45;&gt;marthe&#45;robert</title>
<path fill="none" stroke="red" d="M1144.31,-341.157C1113.22,-325.611 1066.32,-302.162 1060.58,-299.291"/>
</g>
<!-- theo -->
<g id="node31" class="node"><title>theo</title>
<ellipse fill="cyan" stroke="cyan" cx="453" cy="-19" rx="33.9411" ry="18.3848"/>
<text text-anchor="middle" x="453" y="-15.4" font-family="Times Roman,serif" font-size="14.00">theo</text>
</g>
<!-- claude -->
<g id="node32" class="node"><title>claude</title>
<ellipse fill="cyan" stroke="cyan" cx="360" cy="-243" rx="43.1335" ry="18.3848"/>
<text text-anchor="middle" x="360" y="-239.4" font-family="Times Roman,serif" font-size="14.00">claude</text>
</g>
<!-- claude&#45;&gt;muguette&#45;claude -->
<g id="edge100" class="edge"><title>claude&#45;&gt;muguette&#45;claude</title>
<path fill="none" stroke="red" d="M358.335,-224.353C357.017,-209.59 355.349,-190.907 355.048,-187.534"/>
</g>
<!-- robert&#45;charles -->
<g id="node33" class="node"><title>robert&#45;charles</title>
<ellipse fill="cyan" stroke="cyan" cx="1332" cy="-467" rx="79.9031" ry="18.3848"/>
<text text-anchor="middle" x="1332" y="-463.4" font-family="Times Roman,serif" font-size="14.00">robert&#45;charles</text>
</g>
<!-- robert&#45;charles&#45;&gt;adele&#45;robert&#45;charles -->
<g id="edge84" class="edge"><title>robert&#45;charles&#45;&gt;adele&#45;robert&#45;charles</title>
<path fill="none" stroke="red" d="M1292.95,-450.802C1255.57,-435.297 1203.95,-413.882 1197.64,-411.265"/>
</g>
<!-- thomas -->
<g id="node34" class="node"><title>thomas</title>
<ellipse fill="cyan" stroke="cyan" cx="592" cy="-131" rx="48.0833" ry="18.3848"/>
<text text-anchor="middle" x="592" y="-127.4" font-family="Times Roman,serif" font-size="14.00">thomas</text>
</g>
<!-- louis -->
<g id="node35" class="node"><title>louis</title>
<ellipse fill="cyan" stroke="cyan" cx="354" cy="-355" rx="33.9411" ry="18.3848"/>
<text text-anchor="middle" x="354" y="-351.4" font-family="Times Roman,serif" font-size="14.00">louis</text>
</g>
<!-- louis&#45;&gt;blanche&#45;louis -->
<g id="edge48" class="edge"><title>louis&#45;&gt;blanche&#45;louis</title>
<path fill="none" stroke="red" d="M355.998,-336.353C357.58,-321.59 359.581,-302.907 359.943,-299.534"/>
</g>
<!-- charles&#45;louis -->
<g id="node36" class="node"><title>charles&#45;louis</title>
<ellipse fill="cyan" stroke="cyan" cx="894" cy="-467" rx="72.1249" ry="18.3848"/>
<text text-anchor="middle" x="894" y="-463.4" font-family="Times Roman,serif" font-size="14.00">charles&#45;louis</text>
</g>
<!-- charles&#45;louis&#45;&gt;louise&#45;charles&#45;louis -->
<g id="edge64" class="edge"><title>charles&#45;louis&#45;&gt;louise&#45;charles&#45;louis</title>
<path fill="none" stroke="red" d="M861.889,-450.35C832.043,-434.874 791.459,-413.831 786.503,-411.261"/>
</g>
<!-- pierre -->
<g id="node37" class="node"><title>pierre</title>
<ellipse fill="cyan" stroke="cyan" cx="466" cy="-243" rx="39.8075" ry="18.3848"/>
<text text-anchor="middle" x="466" y="-239.4" font-family="Times Roman,serif" font-size="14.00">pierre</text>
</g>
<!-- pierre&#45;&gt;marie&#45;paule&#45;pierre -->
<g id="edge76" class="edge"><title>pierre&#45;&gt;marie&#45;paule&#45;pierre</title>
<path fill="none" stroke="red" d="M494.907,-230.152C529.781,-214.653 584.602,-190.288 591.318,-187.303"/>
</g>
<!-- adele&#45;robert&#45;charles&#45;&gt;robert -->
<g id="edge30" class="edge"><title>adele&#45;robert&#45;charles&#45;&gt;robert</title>
<path fill="none" stroke="red" d="M1196.72,-410.371C1195.09,-406.718 1186.68,-387.883 1180.12,-373.182"/>
</g>
<!-- elise&#45;cesar&#45;&gt;marthe -->
<g id="edge32" class="edge"><title>elise&#45;cesar&#45;&gt;marthe</title>
<path fill="none" stroke="red" d="M1060,-410.371C1060,-406.766 1060,-388.376 1060,-373.764"/>
</g>
<!-- marie&#45;abel&#45;&gt;jeanne -->
<g id="edge10" class="edge"><title>marie&#45;abel&#45;&gt;jeanne</title>
<path fill="none" stroke="red" d="M676.135,-410.371C676.912,-406.742 680.901,-388.13 684.042,-373.472"/>
</g>
<!-- blanche&#45;louis&#45;&gt;claude -->
<g id="edge24" class="edge"><title>blanche&#45;louis&#45;&gt;claude</title>
<path fill="none" stroke="red" d="M360,-298.371C360,-294.766 360,-276.376 360,-261.764"/>
</g>
<!-- louise&#45;charles&#45;louis&#45;&gt;rene -->
<g id="edge34" class="edge"><title>louise&#45;charles&#45;louis&#45;&gt;rene</title>
<path fill="none" stroke="red" d="M786,-410.371C786,-406.766 786,-388.376 786,-373.764"/>
</g>
<!-- marthe&#45;robert&#45;&gt;marc -->
<g id="edge40" class="edge"><title>marthe&#45;robert&#45;&gt;marc</title>
<path fill="none" stroke="red" d="M1059.97,-298.371C1059.77,-294.766 1058.79,-276.376 1058.01,-261.764"/>
</g>
<!-- marie&#45;paule&#45;pierre&#45;&gt;thomas -->
<g id="edge18" class="edge"><title>marie&#45;paule&#45;pierre&#45;&gt;thomas</title>
<path fill="none" stroke="red" d="M592,-186.371C592,-182.766 592,-164.376 592,-149.764"/>
</g>
<!-- jeanne&#45;rene&#45;&gt;marie&#45;paule -->
<g id="edge38" class="edge"><title>jeanne&#45;rene&#45;&gt;marie&#45;paule</title>
<path fill="none" stroke="red" d="M785.446,-298.839C777.885,-296.645 694.559,-272.468 640.059,-256.654"/>
</g>
<!-- jeanne&#45;rene&#45;&gt;laurence -->
<g id="edge14" class="edge"><title>jeanne&#45;rene&#45;&gt;laurence</title>
<path fill="none" stroke="red" d="M786.727,-298.75C794.65,-296.028 865.575,-271.661 910.999,-256.056"/>
</g>
<!-- jeanne&#45;rene&#45;&gt;michel -->
<g id="edge12" class="edge"><title>jeanne&#45;rene&#45;&gt;michel</title>
<path fill="none" stroke="red" d="M786.55,-298.371C789.81,-294.646 806.883,-275.133 819.848,-260.316"/>
</g>
<!-- audrey&#45;arnaud&#45;&gt;clemence -->
<g id="edge8" class="edge"><title>audrey&#45;arnaud&#45;&gt;clemence</title>
<path fill="none" stroke="red" d="M181.195,-74.6424C174.279,-71.5684 124.269,-49.342 89.5898,-33.9288"/>
</g>
<!-- audrey&#45;arnaud&#45;&gt;clarence -->
<g id="edge22" class="edge"><title>audrey&#45;arnaud&#45;&gt;clarence</title>
<path fill="none" stroke="red" d="M182,-74.3711C182,-70.7662 182,-52.3756 182,-37.764"/>
</g>
<!-- audrey&#45;arnaud&#45;&gt;maxence -->
<g id="edge28" class="edge"><title>audrey&#45;arnaud&#45;&gt;maxence</title>
<path fill="none" stroke="red" d="M182.792,-74.6424C189.619,-71.5591 239.113,-49.2071 273.253,-33.7889"/>
</g>
<!-- muguette&#45;claude&#45;&gt;christelle -->
<g id="edge4" class="edge"><title>muguette&#45;claude&#45;&gt;christelle</title>
<path fill="none" stroke="red" d="M355.734,-186.642C361.99,-183.596 406.864,-161.745 438.476,-146.351"/>
</g>
<!-- muguette&#45;claude&#45;&gt;xavier -->
<g id="edge36" class="edge"><title>muguette&#45;claude&#45;&gt;xavier</title>
<path fill="none" stroke="red" d="M355,-186.371C355,-182.766 355,-164.376 355,-149.764"/>
</g>
<!-- muguette&#45;claude&#45;&gt;arnaud -->
<g id="edge42" class="edge"><title>muguette&#45;claude&#45;&gt;arnaud</title>
<path fill="none" stroke="red" d="M354.419,-186.89C346.62,-185.415 261.858,-169.221 195,-150 188.204,-148.046 181.012,-145.74 174.149,-143.421"/>
</g>
<!-- madeleine&#45;marius&#45;&gt;muguette -->
<g id="edge6" class="edge"><title>madeleine&#45;marius&#45;&gt;muguette</title>
<path fill="none" stroke="red" d="M240,-298.371C240,-294.766 240,-276.376 240,-261.764"/>
</g>
<!-- brigitte&#45;michel&#45;&gt;eglantine -->
<g id="edge2" class="edge"><title>brigitte&#45;michel&#45;&gt;eglantine</title>
<path fill="none" stroke="red" d="M776.55,-186.371C779.768,-182.694 796.445,-163.634 809.345,-148.892"/>
</g>
<!-- brigitte&#45;michel&#45;&gt;william -->
<g id="edge16" class="edge"><title>brigitte&#45;michel&#45;&gt;william</title>
<path fill="none" stroke="red" d="M775.54,-186.642C771.732,-183.68 745.057,-162.933 725.389,-147.636"/>
</g>
<!-- christelle&#45;antoine&#45;&gt;chloe -->
<g id="edge26" class="edge"><title>christelle&#45;antoine&#45;&gt;chloe</title>
<path fill="none" stroke="red" d="M497.505,-74.3711C500.499,-70.646 516.179,-51.1332 528.085,-36.3161"/>
</g>
<!-- christelle&#45;antoine&#45;&gt;theo -->
<g id="edge44" class="edge"><title>christelle&#45;antoine&#45;&gt;theo</title>
<path fill="none" stroke="red" d="M496.506,-74.3711C493.56,-70.622 478.049,-50.8807 466.381,-36.0299"/>
</g>
<!-- laurence&#45;marc&#45;&gt;antoine -->
<g id="edge20" class="edge"><title>laurence&#45;marc&#45;&gt;antoine</title>
<path fill="none" stroke="red" d="M949,-186.371C949,-182.766 949,-164.376 949,-149.764"/>
</g>
</g>
</svg>
