<?xml version="1.0" encoding="UTF-8" standalone="no"?>
<!DOCTYPE svg PUBLIC "-//W3C//DTD SVG 1.1//EN"
 "http://www.w3.org/Graphics/SVG/1.1/DTD/svg11.dtd">
<!-- Generated by graphviz version 2.26.3 (20100126.1600)
 -->
<!-- Title: _anonymous_0 Pages: 1 -->
<svg width="761pt" height="766pt"
 viewBox="0.00 0.00 761.00 766.00" xmlns="http://www.w3.org/2000/svg" xmlns:xlink="http://www.w3.org/1999/xlink">
<g id="graph1" class="graph" transform="scale(1 1) rotate(0) translate(4 762)">
<title>_anonymous_0</title>
<polygon fill="white" stroke="white" points="-4,5 -4,-762 758,-762 758,5 -4,5"/>
<!-- marie -->
<g id="node1" class="node"><title>marie</title>
<ellipse fill="pink" stroke="pink" cx="714" cy="-463" rx="39.0967" ry="18.3848"/>
<text text-anchor="middle" x="714" y="-459.4" font-family="Times Roman,serif" font-size="14.00">marie</text>
</g>
<!-- jeanne -->
<g id="node2" class="node"><title>jeanne</title>
<ellipse fill="pink" stroke="pink" cx="550" cy="-371" rx="44.0472" ry="18.3848"/>
<text text-anchor="middle" x="550" y="-367.4" font-family="Times Roman,serif" font-size="14.00">jeanne</text>
</g>
<!-- marie&#45;&gt;jeanne -->
<g id="edge12" class="edge"><title>marie&#45;&gt;jeanne</title>
<path fill="none" stroke="black" d="M700.887,-445.458C691.08,-433.426 676.701,-417.906 661,-408 642.335,-396.224 619.52,-387.78 599.44,-381.959"/>
<polygon fill="black" stroke="black" points="600.1,-378.511 589.53,-379.231 598.242,-385.26 600.1,-378.511"/>
</g>
<!-- marie&#45;paule -->
<g id="node3" class="node"><title>marie&#45;paule</title>
<ellipse fill="pink" stroke="pink" cx="542" cy="-279" rx="68.7979" ry="18.3848"/>
<text text-anchor="middle" x="542" y="-275.4" font-family="Times Roman,serif" font-size="14.00">marie&#45;paule</text>
</g>
<!-- jeanne&#45;&gt;marie&#45;paule -->
<g id="edge16" class="edge"><title>jeanne&#45;&gt;marie&#45;paule</title>
<path fill="none" stroke="black" d="M548.381,-352.382C547.264,-339.538 545.758,-322.216 544.489,-307.627"/>
<polygon fill="black" stroke="black" points="547.97,-307.249 543.617,-297.59 540.996,-307.856 547.97,-307.249"/>
</g>
<!-- laurence -->
<g id="node7" class="node"><title>laurence</title>
<ellipse fill="pink" stroke="pink" cx="402" cy="-279" rx="53.2379" ry="18.3848"/>
<text text-anchor="middle" x="402" y="-275.4" font-family="Times Roman,serif" font-size="14.00">laurence</text>
</g>
<!-- jeanne&#45;&gt;laurence -->
<g id="edge24" class="edge"><title>jeanne&#45;&gt;laurence</title>
<path fill="none" stroke="black" d="M525.228,-355.601C501.053,-340.573 464.048,-317.57 436.897,-300.693"/>
<polygon fill="black" stroke="black" points="438.44,-297.531 428.099,-295.224 434.745,-303.476 438.44,-297.531"/>
</g>
<!-- michel -->
<g id="node22" class="node"><title>michel</title>
<ellipse fill="cyan" stroke="cyan" cx="672" cy="-279" rx="43.1335" ry="18.3848"/>
<text text-anchor="middle" x="672" y="-275.4" font-family="Times Roman,serif" font-size="14.00">michel</text>
</g>
<!-- jeanne&#45;&gt;michel -->
<g id="edge20" class="edge"><title>jeanne&#45;&gt;michel</title>
<path fill="none" stroke="black" d="M566.318,-353.519C577.455,-342.11 592.879,-327.294 608,-316 616.406,-309.721 625.97,-303.68 635.095,-298.364"/>
<polygon fill="black" stroke="black" points="637.041,-301.284 644.014,-293.308 633.589,-295.194 637.041,-301.284"/>
</g>
<!-- chloe -->
<g id="node4" class="node"><title>chloe</title>
<ellipse fill="pink" stroke="pink" cx="301" cy="-19" rx="36.977" ry="18.3848"/>
<text text-anchor="middle" x="301" y="-15.4" font-family="Times Roman,serif" font-size="14.00">chloe</text>
</g>
<!-- louise -->
<g id="node5" class="node"><title>louise</title>
<ellipse fill="pink" stroke="pink" cx="534" cy="-555" rx="39.0967" ry="18.3848"/>
<text text-anchor="middle" x="534" y="-551.4" font-family="Times Roman,serif" font-size="14.00">louise</text>
</g>
<!-- rene -->
<g id="node14" class="node"><title>rene</title>
<ellipse fill="cyan" stroke="cyan" cx="540" cy="-463" rx="33.9411" ry="18.3848"/>
<text text-anchor="middle" x="540" y="-459.4" font-family="Times Roman,serif" font-size="14.00">rene</text>
</g>
<!-- louise&#45;&gt;rene -->
<g id="edge28" class="edge"><title>louise&#45;&gt;rene</title>
<path fill="none" stroke="black" d="M535.214,-536.382C536.052,-523.538 537.182,-506.216 538.133,-491.627"/>
<polygon fill="black" stroke="black" points="541.629,-491.796 538.788,-481.59 534.644,-491.341 541.629,-491.796"/>
</g>
<!-- christelle -->
<g id="node6" class="node"><title>christelle</title>
<ellipse fill="pink" stroke="pink" cx="285" cy="-95" rx="55.8614" ry="18.3848"/>
<text text-anchor="middle" x="285" y="-91.4" font-family="Times Roman,serif" font-size="14.00">christelle</text>
</g>
<!-- christelle&#45;&gt;chloe -->
<g id="edge52" class="edge"><title>christelle&#45;&gt;chloe</title>
<path fill="none" stroke="black" d="M288.955,-76.2135C290.776,-67.5623 292.977,-57.1081 294.997,-47.5153"/>
<polygon fill="black" stroke="black" points="298.455,-48.077 297.09,-37.5704 291.605,-46.6349 298.455,-48.077"/>
</g>
<!-- theo -->
<g id="node24" class="node"><title>theo</title>
<ellipse fill="cyan" stroke="cyan" cx="406" cy="-19" rx="33.9411" ry="18.3848"/>
<text text-anchor="middle" x="406" y="-15.4" font-family="Times Roman,serif" font-size="14.00">theo</text>
</g>
<!-- christelle&#45;&gt;theo -->
<g id="edge8" class="edge"><title>christelle&#45;&gt;theo</title>
<path fill="none" stroke="black" d="M311.255,-78.5091C329.94,-66.773 355.124,-50.9555 374.83,-38.5779"/>
<polygon fill="black" stroke="black" points="376.849,-41.4427 383.456,-33.16 373.126,-35.515 376.849,-41.4427"/>
</g>
<!-- antoine -->
<g id="node18" class="node"><title>antoine</title>
<ellipse fill="cyan" stroke="cyan" cx="369" cy="-187" rx="48.7904" ry="18.3848"/>
<text text-anchor="middle" x="369" y="-183.4" font-family="Times Roman,serif" font-size="14.00">antoine</text>
</g>
<!-- laurence&#45;&gt;antoine -->
<g id="edge36" class="edge"><title>laurence&#45;&gt;antoine</title>
<path fill="none" stroke="black" d="M395.322,-260.382C390.67,-247.414 384.381,-229.879 379.116,-215.203"/>
<polygon fill="black" stroke="black" points="382.339,-213.821 375.668,-205.59 375.75,-216.184 382.339,-213.821"/>
</g>
<!-- marthe -->
<g id="node8" class="node"><title>marthe</title>
<ellipse fill="pink" stroke="pink" cx="312" cy="-463" rx="46.8775" ry="18.3848"/>
<text text-anchor="middle" x="312" y="-459.4" font-family="Times Roman,serif" font-size="14.00">marthe</text>
</g>
<!-- marc -->
<g id="node17" class="node"><title>marc</title>
<ellipse fill="cyan" stroke="cyan" cx="352" cy="-371" rx="34.8574" ry="18.3848"/>
<text text-anchor="middle" x="352" y="-367.4" font-family="Times Roman,serif" font-size="14.00">marc</text>
</g>
<!-- marthe&#45;&gt;marc -->
<g id="edge32" class="edge"><title>marthe&#45;&gt;marc</title>
<path fill="none" stroke="black" d="M320.095,-444.382C325.825,-431.203 333.605,-413.308 340.048,-398.489"/>
<polygon fill="black" stroke="black" points="343.276,-399.842 344.054,-389.276 336.857,-397.051 343.276,-399.842"/>
</g>
<!-- madeleine -->
<g id="node9" class="node"><title>madeleine</title>
<ellipse fill="pink" stroke="pink" cx="61" cy="-279" rx="61.0181" ry="18.3848"/>
<text text-anchor="middle" x="61" y="-275.4" font-family="Times Roman,serif" font-size="14.00">madeleine</text>
</g>
<!-- muguette -->
<g id="node10" class="node"><title>muguette</title>
<ellipse fill="pink" stroke="pink" cx="147" cy="-187" rx="58.8978" ry="18.3848"/>
<text text-anchor="middle" x="147" y="-183.4" font-family="Times Roman,serif" font-size="14.00">muguette</text>
</g>
<!-- madeleine&#45;&gt;muguette -->
<g id="edge4" class="edge"><title>madeleine&#45;&gt;muguette</title>
<path fill="none" stroke="black" d="M77.9908,-260.824C90.9132,-247 108.855,-227.806 123.206,-212.454"/>
<polygon fill="black" stroke="black" points="126.065,-214.521 130.337,-204.825 120.951,-209.741 126.065,-214.521"/>
</g>
<!-- muguette&#45;&gt;christelle -->
<g id="edge64" class="edge"><title>muguette&#45;&gt;christelle</title>
<path fill="none" stroke="black" d="M172.311,-170.126C194.488,-155.342 226.892,-133.739 251.266,-117.489"/>
<polygon fill="black" stroke="black" points="253.47,-120.226 259.849,-111.767 249.587,-114.402 253.47,-120.226"/>
</g>
<!-- xavier -->
<g id="node19" class="node"><title>xavier</title>
<ellipse fill="cyan" stroke="cyan" cx="60" cy="-95" rx="41.2167" ry="18.3848"/>
<text text-anchor="middle" x="60" y="-91.4" font-family="Times Roman,serif" font-size="14.00">xavier</text>
</g>
<!-- muguette&#45;&gt;xavier -->
<g id="edge40" class="edge"><title>muguette&#45;&gt;xavier</title>
<path fill="none" stroke="black" d="M130.226,-169.261C116.816,-155.082 97.8758,-135.053 83.0437,-119.368"/>
<polygon fill="black" stroke="black" points="85.5486,-116.923 76.1347,-112.062 80.4626,-121.733 85.5486,-116.923"/>
</g>
<!-- arnaud -->
<g id="node21" class="node"><title>arnaud</title>
<ellipse fill="cyan" stroke="cyan" cx="165" cy="-95" rx="45.9619" ry="18.3848"/>
<text text-anchor="middle" x="165" y="-91.4" font-family="Times Roman,serif" font-size="14.00">arnaud</text>
</g>
<!-- muguette&#45;&gt;arnaud -->
<g id="edge44" class="edge"><title>muguette&#45;&gt;arnaud</title>
<path fill="none" stroke="black" d="M150.643,-168.382C153.156,-155.538 156.545,-138.216 159.399,-123.627"/>
<polygon fill="black" stroke="black" points="162.878,-124.076 161.363,-113.59 156.008,-122.732 162.878,-124.076"/>
</g>
<!-- blanche -->
<g id="node11" class="node"><title>blanche</title>
<ellipse fill="pink" stroke="pink" cx="211" cy="-371" rx="48.9975" ry="18.3848"/>
<text text-anchor="middle" x="211" y="-367.4" font-family="Times Roman,serif" font-size="14.00">blanche</text>
</g>
<!-- claude -->
<g id="node25" class="node"><title>claude</title>
<ellipse fill="cyan" stroke="cyan" cx="228" cy="-279" rx="43.1335" ry="18.3848"/>
<text text-anchor="middle" x="228" y="-275.4" font-family="Times Roman,serif" font-size="14.00">claude</text>
</g>
<!-- blanche&#45;&gt;claude -->
<g id="edge60" class="edge"><title>blanche&#45;&gt;claude</title>
<path fill="none" stroke="black" d="M214.44,-352.382C216.814,-339.538 220.014,-322.216 222.71,-307.627"/>
<polygon fill="black" stroke="black" points="226.19,-308.059 224.565,-297.59 219.306,-306.787 226.19,-308.059"/>
</g>
<!-- elise -->
<g id="node12" class="node"><title>elise</title>
<ellipse fill="pink" stroke="pink" cx="300" cy="-555" rx="33.234" ry="18.3848"/>
<text text-anchor="middle" x="300" y="-551.4" font-family="Times Roman,serif" font-size="14.00">elise</text>
</g>
<!-- elise&#45;&gt;marthe -->
<g id="edge56" class="edge"><title>elise&#45;&gt;marthe</title>
<path fill="none" stroke="black" d="M302.428,-536.382C304.104,-523.538 306.363,-506.216 308.266,-491.627"/>
<polygon fill="black" stroke="black" points="311.752,-491.959 309.575,-481.59 304.811,-491.053 311.752,-491.959"/>
</g>
<!-- adele -->
<g id="node13" class="node"><title>adele</title>
<ellipse fill="pink" stroke="pink" cx="418" cy="-647" rx="36.977" ry="18.3848"/>
<text text-anchor="middle" x="418" y="-643.4" font-family="Times Roman,serif" font-size="14.00">adele</text>
</g>
<!-- robert -->
<g id="node23" class="node"><title>robert</title>
<ellipse fill="cyan" stroke="cyan" cx="392" cy="-555" rx="41.2167" ry="18.3848"/>
<text text-anchor="middle" x="392" y="-551.4" font-family="Times Roman,serif" font-size="14.00">robert</text>
</g>
<!-- adele&#45;&gt;robert -->
<g id="edge48" class="edge"><title>adele&#45;&gt;robert</title>
<path fill="none" stroke="black" d="M412.739,-628.382C409.109,-615.538 404.213,-598.216 400.09,-583.627"/>
<polygon fill="black" stroke="black" points="403.341,-582.261 397.254,-573.59 396.605,-584.165 403.341,-582.261"/>
</g>
<!-- rene&#45;&gt;jeanne -->
<g id="edge72" class="edge"><title>rene&#45;&gt;jeanne</title>
<path fill="none" stroke="red" d="M542.024,-444.382C543.759,-428.421 546.245,-405.543 547.979,-389.59"/>
<text text-anchor="middle" x="558" y="-413.4" font-family="Times Roman,serif" font-size="14.00">and</text>
</g>
<!-- rene&#45;&gt;marie&#45;paule -->
<g id="edge18" class="edge"><title>rene&#45;&gt;marie&#45;paule</title>
<path fill="none" stroke="black" d="M526.345,-445.913C516.021,-431.834 502.687,-410.861 497,-390 492.558,-373.706 492.394,-368.249 497,-352 501.763,-335.198 511.609,-318.466 520.88,-305.268"/>
<polygon fill="black" stroke="black" points="523.748,-307.277 526.831,-297.141 518.099,-303.142 523.748,-307.277"/>
</g>
<!-- rene&#45;&gt;laurence -->
<g id="edge34" class="edge"><title>rene&#45;&gt;laurence</title>
<path fill="none" stroke="black" d="M521.193,-447.275C514.183,-440.995 506.384,-433.485 500,-426 466.99,-387.297 435.621,-337.047 417.62,-306.453"/>
<polygon fill="black" stroke="black" points="420.535,-304.503 412.476,-297.624 414.487,-308.027 420.535,-304.503"/>
</g>
<!-- rene&#45;&gt;michel -->
<g id="edge26" class="edge"><title>rene&#45;&gt;michel</title>
<path fill="none" stroke="black" d="M556.381,-446.37C562.376,-440.108 569.126,-432.844 575,-426 608.209,-387.312 639.31,-336.655 656.96,-306.036"/>
<polygon fill="black" stroke="black" points="660.079,-307.633 661.993,-297.213 653.998,-304.165 660.079,-307.633"/>
</g>
<!-- marius -->
<g id="node15" class="node"><title>marius</title>
<ellipse fill="cyan" stroke="cyan" cx="84" cy="-371" rx="44.0472" ry="18.3848"/>
<text text-anchor="middle" x="84" y="-367.4" font-family="Times Roman,serif" font-size="14.00">marius</text>
</g>
<!-- marius&#45;&gt;madeleine -->
<g id="edge80" class="edge"><title>marius&#45;&gt;madeleine</title>
<path fill="none" stroke="red" d="M79.3456,-352.382C75.3552,-336.421 69.6359,-313.543 65.6475,-297.59"/>
<text text-anchor="middle" x="88" y="-321.4" font-family="Times Roman,serif" font-size="14.00">and</text>
</g>
<!-- marius&#45;&gt;muguette -->
<g id="edge46" class="edge"><title>marius&#45;&gt;muguette</title>
<path fill="none" stroke="black" d="M98.5311,-353.276C109.288,-339.174 123.35,-318.474 131,-298 141.001,-271.234 144.794,-238.677 146.21,-215.765"/>
<polygon fill="black" stroke="black" points="149.711,-215.83 146.719,-205.667 142.72,-215.478 149.711,-215.83"/>
</g>
<!-- cesar -->
<g id="node16" class="node"><title>cesar</title>
<ellipse fill="cyan" stroke="cyan" cx="275" cy="-647" rx="36.977" ry="18.3848"/>
<text text-anchor="middle" x="275" y="-643.4" font-family="Times Roman,serif" font-size="14.00">cesar</text>
</g>
<!-- cesar&#45;&gt;marthe -->
<g id="edge30" class="edge"><title>cesar&#45;&gt;marthe</title>
<path fill="none" stroke="black" d="M267.17,-628.886C258.654,-606.551 247.562,-567.661 258,-536 263.886,-518.146 276.005,-501.086 287.274,-487.953"/>
<polygon fill="black" stroke="black" points="290.053,-490.097 294.117,-480.312 284.839,-485.427 290.053,-490.097"/>
</g>
<!-- cesar&#45;&gt;elise -->
<g id="edge82" class="edge"><title>cesar&#45;&gt;elise</title>
<path fill="none" stroke="red" d="M280.059,-628.382C284.397,-612.421 290.613,-589.543 294.948,-573.59"/>
<text text-anchor="middle" x="303" y="-597.4" font-family="Times Roman,serif" font-size="14.00">and</text>
</g>
<!-- marc&#45;&gt;laurence -->
<g id="edge76" class="edge"><title>marc&#45;&gt;laurence</title>
<path fill="none" stroke="red" d="M358.897,-352.725C363.279,-341.805 369.365,-327.807 376,-316 379.616,-309.566 384.081,-302.869 388.286,-296.969"/>
<text text-anchor="middle" x="389" y="-321.4" font-family="Times Roman,serif" font-size="14.00">and</text>
</g>
<!-- marc&#45;&gt;antoine -->
<g id="edge6" class="edge"><title>marc&#45;&gt;antoine</title>
<path fill="none" stroke="black" d="M346.651,-352.402C341.045,-330.243 333.843,-292.174 340,-260 342.991,-244.372 349.279,-227.825 355.239,-214.443"/>
<polygon fill="black" stroke="black" points="358.439,-215.862 359.468,-205.317 352.088,-212.919 358.439,-215.862"/>
</g>
<!-- antoine&#45;&gt;chloe -->
<g id="edge14" class="edge"><title>antoine&#45;&gt;chloe</title>
<path fill="none" stroke="black" d="M368.815,-168.42C367.93,-145.615 364.234,-106.251 350,-76 344.213,-63.7013 335.024,-51.9748 326.159,-42.3908"/>
<polygon fill="black" stroke="black" points="328.661,-39.9431 319.19,-35.1939 323.632,-44.8126 328.661,-39.9431"/>
</g>
<!-- antoine&#45;&gt;christelle -->
<g id="edge74" class="edge"><title>antoine&#45;&gt;christelle</title>
<path fill="none" stroke="red" d="M349.315,-169.87C342.658,-163.799 335.316,-156.786 329,-150 318.086,-138.274 306.82,-124.147 298.421,-113.146"/>
<text text-anchor="middle" x="342" y="-137.4" font-family="Times Roman,serif" font-size="14.00">and</text>
</g>
<!-- antoine&#45;&gt;theo -->
<g id="edge22" class="edge"><title>antoine&#45;&gt;theo</title>
<path fill="none" stroke="black" d="M376.817,-168.403C379.05,-162.586 381.328,-156.093 383,-150 392.504,-115.358 398.951,-74.4436 402.546,-47.6723"/>
<polygon fill="black" stroke="black" points="406.054,-47.8328 403.87,-37.4656 399.113,-46.9321 406.054,-47.8328"/>
</g>
<!-- abel -->
<g id="node20" class="node"><title>abel</title>
<ellipse fill="cyan" stroke="cyan" cx="662" cy="-555" rx="31.8198" ry="18.3848"/>
<text text-anchor="middle" x="662" y="-551.4" font-family="Times Roman,serif" font-size="14.00">abel</text>
</g>
<!-- abel&#45;&gt;marie -->
<g id="edge84" class="edge"><title>abel&#45;&gt;marie</title>
<path fill="none" stroke="red" d="M672.026,-537.261C681.175,-521.075 694.633,-497.265 703.827,-480.998"/>
<text text-anchor="middle" x="705" y="-505.4" font-family="Times Roman,serif" font-size="14.00">and</text>
</g>
<!-- abel&#45;&gt;jeanne -->
<g id="edge58" class="edge"><title>abel&#45;&gt;jeanne</title>
<path fill="none" stroke="black" d="M651.892,-537.144C636.01,-509.269 604.025,-453.856 575,-408 572.823,-404.561 570.488,-400.976 568.15,-397.451"/>
<polygon fill="black" stroke="black" points="570.905,-395.275 562.425,-388.924 565.094,-399.177 570.905,-395.275"/>
</g>
<!-- robert&#45;&gt;marthe -->
<g id="edge68" class="edge"><title>robert&#45;&gt;marthe</title>
<path fill="none" stroke="red" d="M371.978,-538.509C365.02,-532.379 357.37,-525.166 351,-518 340.734,-506.452 330.686,-492.19 323.36,-481.083"/>
<text text-anchor="middle" x="364" y="-505.4" font-family="Times Roman,serif" font-size="14.00">and</text>
</g>
<!-- robert&#45;&gt;marc -->
<g id="edge38" class="edge"><title>robert&#45;&gt;marc</title>
<path fill="none" stroke="black" d="M388.024,-536.535C383.277,-514.504 375.088,-476.558 368,-444 364.821,-429.395 361.263,-413.152 358.31,-399.702"/>
<polygon fill="black" stroke="black" points="361.655,-398.616 356.092,-389.599 354.818,-400.117 361.655,-398.616"/>
</g>
<!-- claude&#45;&gt;christelle -->
<g id="edge2" class="edge"><title>claude&#45;&gt;christelle</title>
<path fill="none" stroke="black" d="M238.901,-260.987C242.153,-255.084 245.511,-248.397 248,-242 263.468,-202.245 274.182,-153.9 279.961,-123.781"/>
<polygon fill="black" stroke="black" points="283.474,-124.031 281.866,-113.558 276.593,-122.748 283.474,-124.031"/>
</g>
<!-- claude&#45;&gt;muguette -->
<g id="edge66" class="edge"><title>claude&#45;&gt;muguette</title>
<path fill="none" stroke="red" d="M211.957,-261.8C206.24,-255.603 199.786,-248.529 194,-242 183.17,-229.78 171.22,-215.788 162.079,-204.975"/>
<text text-anchor="middle" x="207" y="-229.4" font-family="Times Roman,serif" font-size="14.00">and</text>
</g>
<!-- claude&#45;&gt;xavier -->
<g id="edge42" class="edge"><title>claude&#45;&gt;xavier</title>
<path fill="none" stroke="black" d="M189.547,-270.664C155.045,-261.093 105.836,-241.865 79,-206 61.2463,-182.273 57.8551,-147.731 58.0427,-123.499"/>
<polygon fill="black" stroke="black" points="61.5417,-123.581 58.3261,-113.486 54.5445,-123.383 61.5417,-123.581"/>
</g>
<!-- claude&#45;&gt;arnaud -->
<g id="edge50" class="edge"><title>claude&#45;&gt;arnaud</title>
<path fill="none" stroke="black" d="M228.503,-260.293C228.51,-237.701 226.575,-198.887 215,-168 208.588,-150.89 197.34,-133.921 187.135,-120.655"/>
<polygon fill="black" stroke="black" points="189.61,-118.145 180.64,-112.507 184.137,-122.509 189.61,-118.145"/>
</g>
<!-- robert&#45;charles -->
<g id="node26" class="node"><title>robert&#45;charles</title>
<ellipse fill="cyan" stroke="cyan" cx="377" cy="-739" rx="79.9031" ry="18.3848"/>
<text text-anchor="middle" x="377" y="-735.4" font-family="Times Roman,serif" font-size="14.00">robert&#45;charles</text>
</g>
<!-- robert&#45;charles&#45;&gt;adele -->
<g id="edge70" class="edge"><title>robert&#45;charles&#45;&gt;adele</title>
<path fill="none" stroke="red" d="M385.297,-720.382C392.457,-704.316 402.74,-681.242 409.855,-665.276"/>
<text text-anchor="middle" x="415" y="-689.4" font-family="Times Roman,serif" font-size="14.00">and</text>
</g>
<!-- robert&#45;charles&#45;&gt;robert -->
<g id="edge62" class="edge"><title>robert&#45;charles&#45;&gt;robert</title>
<path fill="none" stroke="black" d="M374.154,-720.449C371.225,-698.335 367.654,-660.31 372,-628 374.038,-612.848 378.354,-596.391 382.457,-582.944"/>
<polygon fill="black" stroke="black" points="385.823,-583.91 385.512,-573.32 379.151,-581.792 385.823,-583.91"/>
</g>
<!-- louis -->
<g id="node27" class="node"><title>louis</title>
<ellipse fill="cyan" stroke="cyan" cx="212" cy="-463" rx="33.9411" ry="18.3848"/>
<text text-anchor="middle" x="212" y="-459.4" font-family="Times Roman,serif" font-size="14.00">louis</text>
</g>
<!-- louis&#45;&gt;blanche -->
<g id="edge86" class="edge"><title>louis&#45;&gt;blanche</title>
<path fill="none" stroke="red" d="M211.798,-444.382C211.624,-428.421 211.375,-405.543 211.202,-389.59"/>
<text text-anchor="middle" x="225" y="-413.4" font-family="Times Roman,serif" font-size="14.00">and</text>
</g>
<!-- louis&#45;&gt;claude -->
<g id="edge54" class="edge"><title>louis&#45;&gt;claude</title>
<path fill="none" stroke="black" d="M229.857,-447.039C243.599,-433.447 261.475,-412.576 269,-390 278.807,-360.579 262.791,-327.258 247.996,-304.867"/>
<polygon fill="black" stroke="black" points="250.81,-302.782 242.233,-296.563 245.059,-306.774 250.81,-302.782"/>
</g>
<!-- charles&#45;louis -->
<g id="node28" class="node"><title>charles&#45;louis</title>
<ellipse fill="cyan" stroke="cyan" cx="552" cy="-647" rx="72.1249" ry="18.3848"/>
<text text-anchor="middle" x="552" y="-643.4" font-family="Times Roman,serif" font-size="14.00">charles&#45;louis</text>
</g>
<!-- charles&#45;louis&#45;&gt;louise -->
<g id="edge78" class="edge"><title>charles&#45;louis&#45;&gt;louise</title>
<path fill="none" stroke="red" d="M548.357,-628.382C545.235,-612.421 540.759,-589.543 537.637,-573.59"/>
<text text-anchor="middle" x="557" y="-597.4" font-family="Times Roman,serif" font-size="14.00">and</text>
</g>
<!-- charles&#45;louis&#45;&gt;rene -->
<g id="edge10" class="edge"><title>charles&#45;louis&#45;&gt;rene</title>
<path fill="none" stroke="black" d="M564.398,-628.77C567.911,-622.967 571.465,-616.391 574,-610 586.195,-579.249 590.538,-567.96 582,-536 577.493,-519.128 568.049,-502.109 559.256,-488.753"/>
<polygon fill="black" stroke="black" points="561.887,-486.402 553.342,-480.139 556.117,-490.364 561.887,-486.402"/>
</g>
</g>
</svg>
