<?xml version="1.0" encoding="UTF-8" standalone="no"?>
<svg xmlns="http://www.w3.org/2000/svg" xmlns:xlink="http://www.w3.org/1999/xlink" contentScriptType="text/ecmascript" width="1570" zoomAndPan="magnify" contentStyleType="text/css" height="650" preserveAspectRatio="xMidYMid meet" overflow="visible" version="1.0">
<defs>
<marker refX="10" refY="5" markerUnits="strokeWidth" orient="auto" id="lacij-end-arrow-marker" markerHeight="10" viewBox="0 0 10 10" preserveAspectRatio="xMidYMid meet" markerWidth="14">
<polyline points="0,0 10,5 0,10 1,5"/>
</marker>
</defs>
<g id="graph0">
<g id="jeanne-rene-laurence">
<line y2="43.27090915285201" marker-end="url(#lacij-end-arrow-marker)" style=" stroke: #000000;  stroke-width: 1; " x1="965.6105687442822" x2="793.134732861516" y1="457.3410481428215"/>
</g>
<g id="muguette-claude-arnaud">
<line y2="38.893167409179945" marker-end="url(#lacij-end-arrow-marker)" style=" stroke: #000000;  stroke-width: 1; " x1="579.6791111376205" x2="419.386796006773" y1="162.14424780626922"/>
</g>
<g id="brigitte-michel-william">
<line y2="555.0" marker-end="url(#lacij-end-arrow-marker)" style=" stroke: #000000;  stroke-width: 1; " x1="201.61738787282283" x2="42.320508075688764" y1="429.8628965095479"/>
</g>
<g id="marie-marie-abel">
<line y2="415.0" marker-end="url(#lacij-end-arrow-marker)" style=" stroke: #000000;  stroke-width: 1; " x1="1525.978869674097" x2="1375.0" y1="438.819660112501"/>
</g>
<g id="charles-louis-louise-charles-louis">
<line y2="532.2165379807986" marker-end="url(#lacij-end-arrow-marker)" style=" stroke: #000000;  stroke-width: 1; " x1="1525.0487189948035" x2="1374.8053613748314" y1="506.39512947488254"/>
</g>
<g id="marthe-marthe-robert">
<line y2="82.21653798079868" marker-end="url(#lacij-end-arrow-marker)" style=" stroke: #000000;  stroke-width: 1; " x1="1145.0487189948035" x2="994.8053613748314" y1="56.39512947488251"/>
</g>
<g id="muguette-claude-christelle">
<line y2="202.21653798079868" marker-end="url(#lacij-end-arrow-marker)" style=" stroke: #000000;  stroke-width: 1; " x1="575.0487189948035" x2="424.8053613748314" y1="176.3951294748825"/>
</g>
<g id="helene-helene-jean">
<line y2="292.2165379807987" marker-end="url(#lacij-end-arrow-marker)" style=" stroke: #000000;  stroke-width: 1; " x1="385.0487189948035" x2="234.80536137483142" y1="266.39512947488254"/>
</g>
<g id="marius-madeleine-marius">
<line y2="325.0" marker-end="url(#lacij-end-arrow-marker)" style=" stroke: #000000;  stroke-width: 1; " x1="1145.978869674097" x2="995.0" y1="348.819660112501"/>
</g>
<g id="louise-charles-louis-rene">
<line y2="535.0" marker-end="url(#lacij-end-arrow-marker)" style=" stroke: #000000;  stroke-width: 1; " x1="1335.0487189948035" x2="1185.0" y1="536.3951294748825"/>
</g>
<g id="audrey-arnaud-clarence">
<line y2="135.0" marker-end="url(#lacij-end-arrow-marker)" style=" stroke: #000000;  stroke-width: 1; " x1="197.02411907401665" x2="42.320508075688764" y1="63.76742293578155"/>
</g>
<g>
<g>
<path style=" stroke: #000000;  stroke-width: 1; " d=" M955.0487189948035,476.39512947488254 L785.0,505.0 M785.0,505.0 L595.0,445.0 M595.0,445.0 Z"/>
<line y2="505.0" marker-end="url(#lacij-end-arrow-marker)" style=" stroke: #000000;  stroke-width: 1; " x1="595.0" x2="425.0" y1="445.0"/>
</g>
<text x="690.0243594974017" y="490.69756473744127" style=" dominant-baseline: central; " text-anchor="middle"/>
</g>
<g>
<g>
<path style=" stroke: #000000;  stroke-width: 1; " d=" M955.0487189948035,206.3951294748825 L785.0,265.0 M785.0,265.0 L595.0,265.0 M595.0,265.0 Z"/>
<line y2="322.2165379807987" marker-end="url(#lacij-end-arrow-marker)" style=" stroke: #000000;  stroke-width: 1; " x1="595.0" x2="424.8053613748314" y1="265.0"/>
</g>
<text x="689.9270401848174" y="264.3058337278406" style=" dominant-baseline: central; " text-anchor="middle"/>
</g>
<g id="blanche-louis-claude">
<line y2="152.49213186831824" marker-end="url(#lacij-end-arrow-marker)" style=" stroke: #000000;  stroke-width: 1; " x1="955.9788696740969" x2="803.5436770913358" y1="198.81966011250105"/>
</g>
<g id="christelle-antoine-chloe">
<line y2="92.49213186831824" marker-end="url(#lacij-end-arrow-marker)" style=" stroke: #000000;  stroke-width: 1; " x1="195.97886967409693" x2="43.54367709133575" y1="168.81966011250105"/>
</g>
<g id="laurence-laurence-marc">
<line y2="52.216537980798684" marker-end="url(#lacij-end-arrow-marker)" style=" stroke: #000000;  stroke-width: 1; " x1="765.0487189948035" x2="614.8053613748314" y1="26.39512947488251"/>
</g>
<g id="marie-paule-marie-paule-pierre">
<line y2="532.2165379807986" marker-end="url(#lacij-end-arrow-marker)" style=" stroke: #000000;  stroke-width: 1; " x1="385.0487189948035" x2="234.80536137483142" y1="506.39512947488254"/>
</g>
<g id="christelle-christelle-antoine">
<line y2="175.0" marker-end="url(#lacij-end-arrow-marker)" style=" stroke: #000000;  stroke-width: 1; " x1="385.9788696740969" x2="235.0" y1="198.81966011250105"/>
</g>
<g id="marthe-robert-marc">
<line y2="85.0" marker-end="url(#lacij-end-arrow-marker)" style=" stroke: #000000;  stroke-width: 1; " x1="955.0487189948035" x2="805.0" y1="86.39512947488251"/>
</g>
<g id="abel-marie-abel">
<line y2="412.2165379807987" marker-end="url(#lacij-end-arrow-marker)" style=" stroke: #000000;  stroke-width: 1; " x1="1525.0487189948035" x2="1374.8053613748314" y1="386.39512947488254"/>
</g>
<g id="jean-helene-jean">
<line y2="295.0" marker-end="url(#lacij-end-arrow-marker)" style=" stroke: #000000;  stroke-width: 1; " x1="385.9788696740969" x2="235.0" y1="318.819660112501"/>
</g>
<g id="rene-jeanne-rene">
<line y2="482.49213186831827" marker-end="url(#lacij-end-arrow-marker)" style=" stroke: #000000;  stroke-width: 1; " x1="1145.978869674097" x2="993.5436770913358" y1="528.8196601125011"/>
</g>
<g id="marie-paule-pierre-thomas">
<line y2="505.0" marker-end="url(#lacij-end-arrow-marker)" style=" stroke: #000000;  stroke-width: 1; " x1="195.97886967409693" x2="45.0" y1="528.8196601125011"/>
</g>
<g id="robert-marthe-robert">
<line y2="85.0" marker-end="url(#lacij-end-arrow-marker)" style=" stroke: #000000;  stroke-width: 1; " x1="1145.978869674097" x2="995.0" y1="108.81966011250104"/>
</g>
<g id="michel-brigitte-michel">
<line y2="415.0" marker-end="url(#lacij-end-arrow-marker)" style=" stroke: #000000;  stroke-width: 1; " x1="385.9788696740969" x2="235.0" y1="438.819660112501"/>
</g>
<g id="antoine-christelle-antoine">
<line y2="172.21653798079868" marker-end="url(#lacij-end-arrow-marker)" style=" stroke: #000000;  stroke-width: 1; " x1="385.0487189948035" x2="234.80536137483142" y1="146.3951294748825"/>
</g>
<g id="louis-blanche-louis">
<line y2="205.0" marker-end="url(#lacij-end-arrow-marker)" style=" stroke: #000000;  stroke-width: 1; " x1="1145.978869674097" x2="995.0" y1="228.81966011250105"/>
</g>
<g id="adele-robert-charles-robert">
<line y2="122.49213186831824" marker-end="url(#lacij-end-arrow-marker)" style=" stroke: #000000;  stroke-width: 1; " x1="1335.978869674097" x2="1183.5436770913357" y1="168.81966011250105"/>
</g>
<g id="robert-charles-adele-robert-charles">
<line y2="175.0" marker-end="url(#lacij-end-arrow-marker)" style=" stroke: #000000;  stroke-width: 1; " x1="1525.978869674097" x2="1375.0" y1="198.81966011250105"/>
</g>
<g id="helene-jean-mylene">
<line y2="375.0" marker-end="url(#lacij-end-arrow-marker)" style=" stroke: #000000;  stroke-width: 1; " x1="197.02411907401665" x2="42.320508075688764" y1="303.76742293578155"/>
</g>
<g>
<g>
<path style=" stroke: #000000;  stroke-width: 1; " d=" M581.6173878728229,189.86289650954788 L405.0,625.0 M405.0,625.0 L215.0,625.0 M215.0,625.0 Z"/>
<line y2="615.0" marker-end="url(#lacij-end-arrow-marker)" style=" stroke: #000000;  stroke-width: 1; " x1="215.0" x2="42.320508075688764" y1="625.0"/>
</g>
<text x="311.9689479742558" y="402.43144825477395" style=" dominant-baseline: central; " text-anchor="middle"/>
</g>
<g id="jeanne-jeanne-rene">
<line y2="472.2165379807987" marker-end="url(#lacij-end-arrow-marker)" style=" stroke: #000000;  stroke-width: 1; " x1="1147.0241190740167" x2="994.8053613748314" y1="423.76742293578155"/>
</g>
<g id="marc-laurence-marc">
<line y2="55.0" marker-end="url(#lacij-end-arrow-marker)" style=" stroke: #000000;  stroke-width: 1; " x1="765.9788696740969" x2="615.0" y1="78.81966011250104"/>
</g>
<g id="christelle-antoine-theo">
<line y2="429.23978492786557" marker-end="url(#lacij-end-arrow-marker)" style=" stroke: #000000;  stroke-width: 1; " x1="201.61738787282283" x2="37.31322950651315" y1="189.86289650954788"/>
</g>
<g id="adele-adele-robert-charles">
<line y2="172.21653798079868" marker-end="url(#lacij-end-arrow-marker)" style=" stroke: #000000;  stroke-width: 1; " x1="1525.0487189948035" x2="1374.8053613748314" y1="146.3951294748825"/>
</g>
<g id="arnaud-audrey-arnaud">
<line y2="52.216537980798684" marker-end="url(#lacij-end-arrow-marker)" style=" stroke: #000000;  stroke-width: 1; " x1="385.0487189948035" x2="234.80536137483142" y1="26.39512947488251"/>
</g>
<g id="elise-elise-cesar">
<line y2="55.0" marker-end="url(#lacij-end-arrow-marker)" style=" stroke: #000000;  stroke-width: 1; " x1="1525.978869674097" x2="1375.0" y1="78.81966011250104"/>
</g>
<g id="cesar-elise-cesar">
<line y2="52.216537980798684" marker-end="url(#lacij-end-arrow-marker)" style=" stroke: #000000;  stroke-width: 1; " x1="1525.0487189948035" x2="1374.8053613748314" y1="26.39512947488251"/>
</g>
<g id="audrey-audrey-arnaud">
<line y2="55.0" marker-end="url(#lacij-end-arrow-marker)" style=" stroke: #000000;  stroke-width: 1; " x1="385.9788696740969" x2="235.0" y1="78.81966011250104"/>
</g>
<g id="madeleine-madeleine-marius">
<line y2="322.2165379807987" marker-end="url(#lacij-end-arrow-marker)" style=" stroke: #000000;  stroke-width: 1; " x1="1145.0487189948035" x2="994.8053613748314" y1="296.39512947488254"/>
</g>
<g id="audrey-arnaud-clemence">
<line y2="195.0" marker-end="url(#lacij-end-arrow-marker)" style=" stroke: #000000;  stroke-width: 1; " x1="201.61738787282283" x2="42.320508075688764" y1="69.8628965095479"/>
</g>
<g id="madeleine-marius-muguette">
<line y2="212.49213186831824" marker-end="url(#lacij-end-arrow-marker)" style=" stroke: #000000;  stroke-width: 1; " x1="959.6791111376205" x2="803.5436770913358" y1="312.1442478062692"/>
</g>
<g id="brigitte-michel-eglantine">
<line y2="278.89316740917997" marker-end="url(#lacij-end-arrow-marker)" style=" stroke: #000000;  stroke-width: 1; " x1="199.67911113762045" x2="39.386796006773025" y1="402.1442478062692"/>
</g>
<g id="audrey-arnaud-maxence">
<line y2="309.23978492786557" marker-end="url(#lacij-end-arrow-marker)" style=" stroke: #000000;  stroke-width: 1; " x1="201.61738787282283" x2="37.31322950651315" y1="69.8628965095479"/>
</g>
<g id="elise-cesar-marthe">
<line y2="55.0" marker-end="url(#lacij-end-arrow-marker)" style=" stroke: #000000;  stroke-width: 1; " x1="1335.0487189948035" x2="1185.0" y1="56.39512947488251"/>
</g>
<g id="laurence-marc-antoine">
<line y2="135.0" marker-end="url(#lacij-end-arrow-marker)" style=" stroke: #000000;  stroke-width: 1; " x1="577.0241190740167" x2="422.3205080756888" y1="63.76742293578155"/>
</g>
<g id="blanche-blanche-louis">
<line y2="202.21653798079868" marker-end="url(#lacij-end-arrow-marker)" style=" stroke: #000000;  stroke-width: 1; " x1="1145.0487189948035" x2="994.8053613748314" y1="176.3951294748825"/>
</g>
<g id="brigitte-brigitte-michel">
<line y2="412.2165379807987" marker-end="url(#lacij-end-arrow-marker)" style=" stroke: #000000;  stroke-width: 1; " x1="385.0487189948035" x2="234.80536137483142" y1="386.39512947488254"/>
</g>
<g id="marie-abel-jeanne">
<line y2="415.0" marker-end="url(#lacij-end-arrow-marker)" style=" stroke: #000000;  stroke-width: 1; " x1="1335.0487189948035" x2="1185.0" y1="416.39512947488254"/>
</g>
<g id="claude-muguette-claude">
<line y2="172.21653798079868" marker-end="url(#lacij-end-arrow-marker)" style=" stroke: #000000;  stroke-width: 1; " x1="765.0487189948035" x2="614.8053613748314" y1="146.3951294748825"/>
</g>
<g>
<g>
<path style=" stroke: #000000;  stroke-width: 1; " d=" M955.0487189948035,476.39512947488254 L785.0,445.0 M785.0,445.0 L595.0,385.0 M595.0,385.0 Z"/>
<line y2="445.0" marker-end="url(#lacij-end-arrow-marker)" style=" stroke: #000000;  stroke-width: 1; " x1="595.0" x2="425.0" y1="385.0"/>
</g>
<text x="690.0243594974017" y="460.69756473744127" style=" dominant-baseline: central; " text-anchor="middle"/>
</g>
<g id="pierre-marie-paule-pierre">
<line y2="535.0" marker-end="url(#lacij-end-arrow-marker)" style=" stroke: #000000;  stroke-width: 1; " x1="385.9788696740969" x2="235.0" y1="558.8196601125011"/>
</g>
<g id="muguette-muguette-claude">
<line y2="175.0" marker-end="url(#lacij-end-arrow-marker)" style=" stroke: #000000;  stroke-width: 1; " x1="765.9788696740969" x2="615.0" y1="198.81966011250105"/>
</g>
<g id="louise-louise-charles-louis">
<line y2="535.0" marker-end="url(#lacij-end-arrow-marker)" style=" stroke: #000000;  stroke-width: 1; " x1="1525.978869674097" x2="1375.0" y1="558.8196601125011"/>
</g>
<g id="clarence" transform="translate(5.0, 125.0)">
<circle fill="blue" shape=":circle" width="50" style=" fill: white;  stroke: black; " cx="20" r="20" cy="20" height="30"/>
<text x="20" font-size="12" y="20" style=" dominant-baseline: central; " text-anchor="middle">clarence</text>
</g>
<g id="adele-robert-charles" transform="translate(1335.0, 155.0)">
<circle fill="purple" shape=":circle" width="0" style=" fill: white;  stroke: black; " cx="20" r="20" cy="20" height="0"/>
<text x="20" font-size="12" y="20" style=" dominant-baseline: central; " text-anchor="middle">adele-robert-charles</text>
</g>
<g id="rene" transform="translate(1145.0, 515.0)">
<circle fill="blue" shape=":circle" width="50" style=" fill: white;  stroke: black; " cx="20" r="20" cy="20" height="30"/>
<text x="20" font-size="12" y="20" style=" dominant-baseline: central; " text-anchor="middle">rene</text>
</g>
<g id="elise-cesar" transform="translate(1335.0, 35.0)">
<circle fill="purple" shape=":circle" width="0" style=" fill: white;  stroke: black; " cx="20" r="20" cy="20" height="0"/>
<text x="20" font-size="12" y="20" style=" dominant-baseline: central; " text-anchor="middle">elise-cesar</text>
</g>
<g id="william" transform="translate(5.0, 545.0)">
<circle fill="blue" shape=":circle" width="50" style=" fill: white;  stroke: black; " cx="20" r="20" cy="20" height="30"/>
<text x="20" font-size="12" y="20" style=" dominant-baseline: central; " text-anchor="middle">william</text>
</g>
<g id="marius" transform="translate(1145.0, 335.0)">
<circle fill="blue" shape=":circle" width="50" style=" fill: white;  stroke: black; " cx="20" r="20" cy="20" height="30"/>
<text x="20" font-size="12" y="20" style=" dominant-baseline: central; " text-anchor="middle">marius</text>
</g>
<g id="jean" transform="translate(385.0, 305.0)">
<circle fill="blue" shape=":circle" width="50" style=" fill: white;  stroke: black; " cx="20" r="20" cy="20" height="30"/>
<text x="20" font-size="12" y="20" style=" dominant-baseline: central; " text-anchor="middle">jean</text>
</g>
<g id="cesar" transform="translate(1525.0, 5.0)">
<circle fill="blue" shape=":circle" width="50" style=" fill: white;  stroke: black; " cx="20" r="20" cy="20" height="30"/>
<text x="20" font-size="12" y="20" style=" dominant-baseline: central; " text-anchor="middle">cesar</text>
</g>
<g id="maxence" transform="translate(5.0, 305.0)">
<circle fill="blue" shape=":circle" width="50" style=" fill: white;  stroke: black; " cx="20" r="20" cy="20" height="30"/>
<text x="20" font-size="12" y="20" style=" dominant-baseline: central; " text-anchor="middle">maxence</text>
</g>
<g id="marie-abel" transform="translate(1335.0, 395.0)">
<circle fill="purple" shape=":circle" width="0" style=" fill: white;  stroke: black; " cx="20" r="20" cy="20" height="0"/>
<text x="20" font-size="12" y="20" style=" dominant-baseline: central; " text-anchor="middle">marie-abel</text>
</g>
<g id="marie" transform="translate(1525.0, 425.0)">
<circle fill="pink" shape=":circle" width="50" style=" fill: white;  stroke: black; " cx="20" r="20" cy="20" height="30"/>
<text x="20" font-size="12" y="20" style=" dominant-baseline: central; " text-anchor="middle">marie</text>
</g>
<g id="jeanne" transform="translate(1145.0, 395.0)">
<circle fill="pink" shape=":circle" width="50" style=" fill: white;  stroke: black; " cx="20" r="20" cy="20" height="30"/>
<text x="20" font-size="12" y="20" style=" dominant-baseline: central; " text-anchor="middle">jeanne</text>
</g>
<g id="marc" transform="translate(765.0, 65.0)">
<circle fill="blue" shape=":circle" width="50" style=" fill: white;  stroke: black; " cx="20" r="20" cy="20" height="30"/>
<text x="20" font-size="12" y="20" style=" dominant-baseline: central; " text-anchor="middle">marc</text>
</g>
<g id="blanche-louis" transform="translate(955.0, 185.0)">
<circle fill="purple" shape=":circle" width="0" style=" fill: white;  stroke: black; " cx="20" r="20" cy="20" height="0"/>
<text x="20" font-size="12" y="20" style=" dominant-baseline: central; " text-anchor="middle">blanche-louis</text>
</g>
<g id="antoine" transform="translate(385.0, 125.0)">
<circle fill="blue" shape=":circle" width="50" style=" fill: white;  stroke: black; " cx="20" r="20" cy="20" height="30"/>
<text x="20" font-size="12" y="20" style=" dominant-baseline: central; " text-anchor="middle">antoine</text>
</g>
<g id="marie-paule" transform="translate(385.0, 485.0)">
<circle fill="pink" shape=":circle" width="50" style=" fill: white;  stroke: black; " cx="20" r="20" cy="20" height="30"/>
<text x="20" font-size="12" y="20" style=" dominant-baseline: central; " text-anchor="middle">marie-paule</text>
</g>
<g id="xavier" transform="translate(5.0, 605.0)">
<circle fill="blue" shape=":circle" width="50" style=" fill: white;  stroke: black; " cx="20" r="20" cy="20" height="30"/>
<text x="20" font-size="12" y="20" style=" dominant-baseline: central; " text-anchor="middle">xavier</text>
</g>
<g id="helene-jean" transform="translate(195.0, 275.0)">
<circle fill="purple" shape=":circle" width="0" style=" fill: white;  stroke: black; " cx="20" r="20" cy="20" height="0"/>
<text x="20" font-size="12" y="20" style=" dominant-baseline: central; " text-anchor="middle">helene-jean</text>
</g>
<g id="abel" transform="translate(1525.0, 365.0)">
<circle fill="blue" shape=":circle" width="50" style=" fill: white;  stroke: black; " cx="20" r="20" cy="20" height="30"/>
<text x="20" font-size="12" y="20" style=" dominant-baseline: central; " text-anchor="middle">abel</text>
</g>
<g id="louise-charles-louis" transform="translate(1335.0, 515.0)">
<circle fill="purple" shape=":circle" width="0" style=" fill: white;  stroke: black; " cx="20" r="20" cy="20" height="0"/>
<text x="20" font-size="12" y="20" style=" dominant-baseline: central; " text-anchor="middle">louise-charles-louis</text>
</g>
<g id="marthe-robert" transform="translate(955.0, 65.0)">
<circle fill="purple" shape=":circle" width="0" style=" fill: white;  stroke: black; " cx="20" r="20" cy="20" height="0"/>
<text x="20" font-size="12" y="20" style=" dominant-baseline: central; " text-anchor="middle">marthe-robert</text>
</g>
<g id="marie-paule-pierre" transform="translate(195.0, 515.0)">
<circle fill="purple" shape=":circle" width="0" style=" fill: white;  stroke: black; " cx="20" r="20" cy="20" height="0"/>
<text x="20" font-size="12" y="20" style=" dominant-baseline: central; " text-anchor="middle">marie-paule-pierre</text>
</g>
<g id="chloe" transform="translate(5.0, 65.0)">
<circle fill="pink" shape=":circle" width="50" style=" fill: white;  stroke: black; " cx="20" r="20" cy="20" height="30"/>
<text x="20" font-size="12" y="20" style=" dominant-baseline: central; " text-anchor="middle">chloe</text>
</g>
<g id="arnaud" transform="translate(385.0, 5.0)">
<circle fill="blue" shape=":circle" width="50" style=" fill: white;  stroke: black; " cx="20" r="20" cy="20" height="30"/>
<text x="20" font-size="12" y="20" style=" dominant-baseline: central; " text-anchor="middle">arnaud</text>
</g>
<g id="jeanne-rene" transform="translate(955.0, 455.0)">
<circle fill="purple" shape=":circle" width="0" style=" fill: white;  stroke: black; " cx="20" r="20" cy="20" height="0"/>
<text x="20" font-size="12" y="20" style=" dominant-baseline: central; " text-anchor="middle">jeanne-rene</text>
</g>
<g id="audrey-arnaud" transform="translate(195.0, 35.0)">
<circle fill="purple" shape=":circle" width="0" style=" fill: white;  stroke: black; " cx="20" r="20" cy="20" height="0"/>
<text x="20" font-size="12" y="20" style=" dominant-baseline: central; " text-anchor="middle">audrey-arnaud</text>
</g>
<g id="helene" transform="translate(385.0, 245.0)">
<circle fill="pink" shape=":circle" width="50" style=" fill: white;  stroke: black; " cx="20" r="20" cy="20" height="30"/>
<text x="20" font-size="12" y="20" style=" dominant-baseline: central; " text-anchor="middle">helene</text>
</g>
<g id="louise" transform="translate(1525.0, 545.0)">
<circle fill="pink" shape=":circle" width="50" style=" fill: white;  stroke: black; " cx="20" r="20" cy="20" height="30"/>
<text x="20" font-size="12" y="20" style=" dominant-baseline: central; " text-anchor="middle">louise</text>
</g>
<g id="michel" transform="translate(385.0, 425.0)">
<circle fill="blue" shape=":circle" width="50" style=" fill: white;  stroke: black; " cx="20" r="20" cy="20" height="30"/>
<text x="20" font-size="12" y="20" style=" dominant-baseline: central; " text-anchor="middle">michel</text>
</g>
<g id="robert" transform="translate(1145.0, 95.0)">
<circle fill="blue" shape=":circle" width="50" style=" fill: white;  stroke: black; " cx="20" r="20" cy="20" height="30"/>
<text x="20" font-size="12" y="20" style=" dominant-baseline: central; " text-anchor="middle">robert</text>
</g>
<g id="muguette-claude" transform="translate(575.0, 155.0)">
<circle fill="purple" shape=":circle" width="0" style=" fill: white;  stroke: black; " cx="20" r="20" cy="20" height="0"/>
<text x="20" font-size="12" y="20" style=" dominant-baseline: central; " text-anchor="middle">muguette-claude</text>
</g>
<g id="mylene" transform="translate(5.0, 365.0)">
<circle fill="pink" shape=":circle" width="50" style=" fill: white;  stroke: black; " cx="20" r="20" cy="20" height="30"/>
<text x="20" font-size="12" y="20" style=" dominant-baseline: central; " text-anchor="middle">mylene</text>
</g>
<g id="clemence" transform="translate(5.0, 185.0)">
<circle fill="pink" shape=":circle" width="50" style=" fill: white;  stroke: black; " cx="20" r="20" cy="20" height="30"/>
<text x="20" font-size="12" y="20" style=" dominant-baseline: central; " text-anchor="middle">clemence</text>
</g>
<g id="christelle" transform="translate(385.0, 185.0)">
<circle fill="pink" shape=":circle" width="50" style=" fill: white;  stroke: black; " cx="20" r="20" cy="20" height="30"/>
<text x="20" font-size="12" y="20" style=" dominant-baseline: central; " text-anchor="middle">christelle</text>
</g>
<g id="laurence" transform="translate(765.0, 5.0)">
<circle fill="pink" shape=":circle" width="50" style=" fill: white;  stroke: black; " cx="20" r="20" cy="20" height="30"/>
<text x="20" font-size="12" y="20" style=" dominant-baseline: central; " text-anchor="middle">laurence</text>
</g>
<g id="marthe" transform="translate(1145.0, 35.0)">
<circle fill="pink" shape=":circle" width="50" style=" fill: white;  stroke: black; " cx="20" r="20" cy="20" height="30"/>
<text x="20" font-size="12" y="20" style=" dominant-baseline: central; " text-anchor="middle">marthe</text>
</g>
<g id="theo" transform="translate(5.0, 425.0)">
<circle fill="blue" shape=":circle" width="50" style=" fill: white;  stroke: black; " cx="20" r="20" cy="20" height="30"/>
<text x="20" font-size="12" y="20" style=" dominant-baseline: central; " text-anchor="middle">theo</text>
</g>
<g id="claude" transform="translate(765.0, 125.0)">
<circle fill="blue" shape=":circle" width="50" style=" fill: white;  stroke: black; " cx="20" r="20" cy="20" height="30"/>
<text x="20" font-size="12" y="20" style=" dominant-baseline: central; " text-anchor="middle">claude</text>
</g>
<g id="robert-charles" transform="translate(1525.0, 185.0)">
<circle fill="blue" shape=":circle" width="50" style=" fill: white;  stroke: black; " cx="20" r="20" cy="20" height="30"/>
<text x="20" font-size="12" y="20" style=" dominant-baseline: central; " text-anchor="middle">robert-charles</text>
</g>
<g id="madeleine-marius" transform="translate(955.0, 305.0)">
<circle fill="purple" shape=":circle" width="0" style=" fill: white;  stroke: black; " cx="20" r="20" cy="20" height="0"/>
<text x="20" font-size="12" y="20" style=" dominant-baseline: central; " text-anchor="middle">madeleine-marius</text>
</g>
<g id="thomas" transform="translate(5.0, 485.0)">
<circle fill="blue" shape=":circle" width="50" style=" fill: white;  stroke: black; " cx="20" r="20" cy="20" height="30"/>
<text x="20" font-size="12" y="20" style=" dominant-baseline: central; " text-anchor="middle">thomas</text>
</g>
<g id="madeleine" transform="translate(1145.0, 275.0)">
<circle fill="pink" shape=":circle" width="50" style=" fill: white;  stroke: black; " cx="20" r="20" cy="20" height="30"/>
<text x="20" font-size="12" y="20" style=" dominant-baseline: central; " text-anchor="middle">madeleine</text>
</g>
<g id="muguette" transform="translate(765.0, 185.0)">
<circle fill="pink" shape=":circle" width="50" style=" fill: white;  stroke: black; " cx="20" r="20" cy="20" height="30"/>
<text x="20" font-size="12" y="20" style=" dominant-baseline: central; " text-anchor="middle">muguette</text>
</g>
<g id="brigitte-michel" transform="translate(195.0, 395.0)">
<circle fill="purple" shape=":circle" width="0" style=" fill: white;  stroke: black; " cx="20" r="20" cy="20" height="0"/>
<text x="20" font-size="12" y="20" style=" dominant-baseline: central; " text-anchor="middle">brigitte-michel</text>
</g>
<g id="audrey" transform="translate(385.0, 65.0)">
<circle fill="pink" shape=":circle" width="50" style=" fill: white;  stroke: black; " cx="20" r="20" cy="20" height="30"/>
<text x="20" font-size="12" y="20" style=" dominant-baseline: central; " text-anchor="middle">audrey</text>
</g>
<g id="brigitte" transform="translate(385.0, 365.0)">
<circle fill="pink" shape=":circle" width="50" style=" fill: white;  stroke: black; " cx="20" r="20" cy="20" height="30"/>
<text x="20" font-size="12" y="20" style=" dominant-baseline: central; " text-anchor="middle">brigitte</text>
</g>
<g id="blanche" transform="translate(1145.0, 155.0)">
<circle fill="pink" shape=":circle" width="50" style=" fill: white;  stroke: black; " cx="20" r="20" cy="20" height="30"/>
<text x="20" font-size="12" y="20" style=" dominant-baseline: central; " text-anchor="middle">blanche</text>
</g>
<g id="eglantine" transform="translate(5.0, 245.0)">
<circle fill="pink" shape=":circle" width="50" style=" fill: white;  stroke: black; " cx="20" r="20" cy="20" height="30"/>
<text x="20" font-size="12" y="20" style=" dominant-baseline: central; " text-anchor="middle">eglantine</text>
</g>
<g id="elise" transform="translate(1525.0, 65.0)">
<circle fill="pink" shape=":circle" width="50" style=" fill: white;  stroke: black; " cx="20" r="20" cy="20" height="30"/>
<text x="20" font-size="12" y="20" style=" dominant-baseline: central; " text-anchor="middle">elise</text>
</g>
<g id="christelle-antoine" transform="translate(195.0, 155.0)">
<circle fill="purple" shape=":circle" width="0" style=" fill: white;  stroke: black; " cx="20" r="20" cy="20" height="0"/>
<text x="20" font-size="12" y="20" style=" dominant-baseline: central; " text-anchor="middle">christelle-antoine</text>
</g>
<g id="laurence-marc" transform="translate(575.0, 35.0)">
<circle fill="purple" shape=":circle" width="0" style=" fill: white;  stroke: black; " cx="20" r="20" cy="20" height="0"/>
<text x="20" font-size="12" y="20" style=" dominant-baseline: central; " text-anchor="middle">laurence-marc</text>
</g>
<g id="adele" transform="translate(1525.0, 125.0)">
<circle fill="pink" shape=":circle" width="50" style=" fill: white;  stroke: black; " cx="20" r="20" cy="20" height="30"/>
<text x="20" font-size="12" y="20" style=" dominant-baseline: central; " text-anchor="middle">adele</text>
</g>
<g id="louis" transform="translate(1145.0, 215.0)">
<circle fill="blue" shape=":circle" width="50" style=" fill: white;  stroke: black; " cx="20" r="20" cy="20" height="30"/>
<text x="20" font-size="12" y="20" style=" dominant-baseline: central; " text-anchor="middle">louis</text>
</g>
<g id="charles-louis" transform="translate(1525.0, 485.0)">
<circle fill="blue" shape=":circle" width="50" style=" fill: white;  stroke: black; " cx="20" r="20" cy="20" height="30"/>
<text x="20" font-size="12" y="20" style=" dominant-baseline: central; " text-anchor="middle">charles-louis</text>
</g>
<g id="pierre" transform="translate(385.0, 545.0)">
<circle fill="blue" shape=":circle" width="50" style=" fill: white;  stroke: black; " cx="20" r="20" cy="20" height="30"/>
<text x="20" font-size="12" y="20" style=" dominant-baseline: central; " text-anchor="middle">pierre</text>
</g>
</g>
</svg>
