<?xml version="1.0" encoding="UTF-8" standalone="no"?>
<!DOCTYPE svg PUBLIC "-//W3C//DTD SVG 1.1//EN"
 "http://www.w3.org/Graphics/SVG/1.1/DTD/svg11.dtd">
<!-- Generated by graphviz version 2.26.3 (20100126.1600)
 -->
<!-- Title: _anonymous_0 Pages: 1 -->
<svg width="1332pt" height="494pt"
 viewBox="0.00 0.00 1332.00 494.00" xmlns="http://www.w3.org/2000/svg" xmlns:xlink="http://www.w3.org/1999/xlink">
<g id="graph1" class="graph" transform="scale(1 1) rotate(0) translate(4 490)">
<title>_anonymous_0</title>
<polygon fill="white" stroke="white" points="-4,5 -4,-490 1329,-490 1329,5 -4,5"/>
<!-- marie -->
<g id="node1" class="node"><title>marie</title>
<ellipse fill="pink" stroke="pink" cx="72" cy="-467" rx="39.0967" ry="18.3848"/>
<text text-anchor="middle" x="72" y="-463.4" font-family="Times Roman,serif" font-size="14.00">marie</text>
</g>
<!-- marie&#45;abel -->
<g id="node43" class="node"><title>marie&#45;abel</title>
<ellipse fill="purple" stroke="purple" cx="161" cy="-411" rx="0" ry="0.5"/>
</g>
<!-- marie&#45;&gt;marie&#45;abel -->
<g id="edge54" class="edge"><title>marie&#45;&gt;marie&#45;abel</title>
<path fill="none" stroke="red" d="M95.8504,-451.993C120.566,-436.442 156.2,-414.02 160.558,-411.278"/>
</g>
<!-- jeanne -->
<g id="node2" class="node"><title>jeanne</title>
<ellipse fill="pink" stroke="pink" cx="166" cy="-355" rx="44.0472" ry="18.3848"/>
<text text-anchor="middle" x="166" y="-351.4" font-family="Times Roman,serif" font-size="14.00">jeanne</text>
</g>
<!-- jeanne&#45;rene -->
<g id="node49" class="node"><title>jeanne&#45;rene</title>
<ellipse fill="purple" stroke="purple" cx="298" cy="-299" rx="0" ry="0.5"/>
</g>
<!-- jeanne&#45;&gt;jeanne&#45;rene -->
<g id="edge94" class="edge"><title>jeanne&#45;&gt;jeanne&#45;rene</title>
<path fill="none" stroke="red" d="M197.282,-341.729C233.877,-326.204 290.378,-302.234 297.298,-299.298"/>
</g>
<!-- marie&#45;paule -->
<g id="node3" class="node"><title>marie&#45;paule</title>
<ellipse fill="pink" stroke="pink" cx="69" cy="-243" rx="68.7979" ry="18.3848"/>
<text text-anchor="middle" x="69" y="-239.4" font-family="Times Roman,serif" font-size="14.00">marie&#45;paule</text>
</g>
<!-- marie&#45;paule&#45;pierre -->
<g id="node48" class="node"><title>marie&#45;paule&#45;pierre</title>
<ellipse fill="purple" stroke="purple" cx="133" cy="-187" rx="0" ry="0.5"/>
</g>
<!-- marie&#45;paule&#45;&gt;marie&#45;paule&#45;pierre -->
<g id="edge82" class="edge"><title>marie&#45;paule&#45;&gt;marie&#45;paule&#45;pierre</title>
<path fill="none" stroke="red" d="M89.25,-225.281C106.242,-210.413 128.367,-191.053 132.367,-187.554"/>
</g>
<!-- chloe -->
<g id="node4" class="node"><title>chloe</title>
<ellipse fill="pink" stroke="pink" cx="700" cy="-19" rx="36.977" ry="18.3848"/>
<text text-anchor="middle" x="700" y="-15.4" font-family="Times Roman,serif" font-size="14.00">chloe</text>
</g>
<!-- helene -->
<g id="node5" class="node"><title>helene</title>
<ellipse fill="pink" stroke="pink" cx="787" cy="-243" rx="44.0472" ry="18.3848"/>
<text text-anchor="middle" x="787" y="-239.4" font-family="Times Roman,serif" font-size="14.00">helene</text>
</g>
<!-- helene&#45;jean -->
<g id="node45" class="node"><title>helene&#45;jean</title>
<ellipse fill="purple" stroke="purple" cx="802" cy="-187" rx="0" ry="0.5"/>
</g>
<!-- helene&#45;&gt;helene&#45;jean -->
<g id="edge70" class="edge"><title>helene&#45;&gt;helene&#45;jean</title>
<path fill="none" stroke="red" d="M791.995,-224.353C795.949,-209.59 800.953,-190.907 801.857,-187.534"/>
</g>
<!-- louise -->
<g id="node6" class="node"><title>louise</title>
<ellipse fill="pink" stroke="pink" cx="250" cy="-467" rx="39.0967" ry="18.3848"/>
<text text-anchor="middle" x="250" y="-463.4" font-family="Times Roman,serif" font-size="14.00">louise</text>
</g>
<!-- louise&#45;charles&#45;louis -->
<g id="node46" class="node"><title>louise&#45;charles&#45;louis</title>
<ellipse fill="purple" stroke="purple" cx="298" cy="-411" rx="0" ry="0.5"/>
</g>
<!-- louise&#45;&gt;louise&#45;charles&#45;louis -->
<g id="edge66" class="edge"><title>louise&#45;&gt;louise&#45;charles&#45;louis</title>
<path fill="none" stroke="red" d="M264.924,-449.588C277.694,-434.69 294.483,-415.103 297.519,-411.561"/>
</g>
<!-- mylene -->
<g id="node7" class="node"><title>mylene</title>
<ellipse fill="pink" stroke="pink" cx="802" cy="-131" rx="46.8775" ry="18.3848"/>
<text text-anchor="middle" x="802" y="-127.4" font-family="Times Roman,serif" font-size="14.00">mylene</text>
</g>
<!-- clemence -->
<g id="node8" class="node"><title>clemence</title>
<ellipse fill="pink" stroke="pink" cx="1146" cy="-19" rx="56.0679" ry="18.3848"/>
<text text-anchor="middle" x="1146" y="-15.4" font-family="Times Roman,serif" font-size="14.00">clemence</text>
</g>
<!-- christelle -->
<g id="node9" class="node"><title>christelle</title>
<ellipse fill="pink" stroke="pink" cx="923" cy="-131" rx="55.8614" ry="18.3848"/>
<text text-anchor="middle" x="923" y="-127.4" font-family="Times Roman,serif" font-size="14.00">christelle</text>
</g>
<!-- christelle&#45;antoine -->
<g id="node54" class="node"><title>christelle&#45;antoine</title>
<ellipse fill="purple" stroke="purple" cx="655" cy="-75" rx="0" ry="0.5"/>
</g>
<!-- christelle&#45;&gt;christelle&#45;antoine -->
<g id="edge78" class="edge"><title>christelle&#45;&gt;christelle&#45;antoine</title>
<path fill="none" stroke="red" d="M881.909,-118.288C874.013,-116.044 865.78,-113.841 858,-112 772.939,-91.8738 665.611,-76.5006 655.736,-75.1036"/>
</g>
<!-- laurence -->
<g id="node10" class="node"><title>laurence</title>
<ellipse fill="pink" stroke="pink" cx="307" cy="-243" rx="53.2379" ry="18.3848"/>
<text text-anchor="middle" x="307" y="-239.4" font-family="Times Roman,serif" font-size="14.00">laurence</text>
</g>
<!-- laurence&#45;marc -->
<g id="node55" class="node"><title>laurence&#45;marc</title>
<ellipse fill="purple" stroke="purple" cx="446" cy="-187" rx="0" ry="0.5"/>
</g>
<!-- laurence&#45;&gt;laurence&#45;marc -->
<g id="edge74" class="edge"><title>laurence&#45;&gt;laurence&#45;marc</title>
<path fill="none" stroke="red" d="M341.717,-229.013C380.315,-213.463 438.197,-190.144 445.281,-187.29"/>
</g>
<!-- marthe -->
<g id="node11" class="node"><title>marthe</title>
<ellipse fill="pink" stroke="pink" cx="521" cy="-355" rx="46.8775" ry="18.3848"/>
<text text-anchor="middle" x="521" y="-351.4" font-family="Times Roman,serif" font-size="14.00">marthe</text>
</g>
<!-- marthe&#45;robert -->
<g id="node47" class="node"><title>marthe&#45;robert</title>
<ellipse fill="purple" stroke="purple" cx="521" cy="-299" rx="0" ry="0.5"/>
</g>
<!-- marthe&#45;&gt;marthe&#45;robert -->
<g id="edge102" class="edge"><title>marthe&#45;&gt;marthe&#45;robert</title>
<path fill="none" stroke="red" d="M521,-336.353C521,-321.59 521,-302.907 521,-299.534"/>
</g>
<!-- madeleine -->
<g id="node12" class="node"><title>madeleine</title>
<ellipse fill="pink" stroke="pink" cx="1077" cy="-355" rx="61.0181" ry="18.3848"/>
<text text-anchor="middle" x="1077" y="-351.4" font-family="Times Roman,serif" font-size="14.00">madeleine</text>
</g>
<!-- madeleine&#45;marius -->
<g id="node52" class="node"><title>madeleine&#45;marius</title>
<ellipse fill="purple" stroke="purple" cx="1094" cy="-299" rx="0" ry="0.5"/>
</g>
<!-- madeleine&#45;&gt;madeleine&#45;marius -->
<g id="edge62" class="edge"><title>madeleine&#45;&gt;madeleine&#45;marius</title>
<path fill="none" stroke="red" d="M1082.66,-336.353C1087.14,-321.59 1092.81,-302.907 1093.84,-299.534"/>
</g>
<!-- muguette -->
<g id="node13" class="node"><title>muguette</title>
<ellipse fill="pink" stroke="pink" cx="1094" cy="-243" rx="58.8978" ry="18.3848"/>
<text text-anchor="middle" x="1094" y="-239.4" font-family="Times Roman,serif" font-size="14.00">muguette</text>
</g>
<!-- muguette&#45;claude -->
<g id="node51" class="node"><title>muguette&#45;claude</title>
<ellipse fill="purple" stroke="purple" cx="1043" cy="-187" rx="0" ry="0.5"/>
</g>
<!-- muguette&#45;&gt;muguette&#45;claude -->
<g id="edge106" class="edge"><title>muguette&#45;&gt;muguette&#45;claude</title>
<path fill="none" stroke="red" d="M1077.58,-224.973C1064.07,-210.137 1046.65,-191.004 1043.5,-187.547"/>
</g>
<!-- audrey -->
<g id="node14" class="node"><title>audrey</title>
<ellipse fill="pink" stroke="pink" cx="1253" cy="-131" rx="45.9619" ry="18.3848"/>
<text text-anchor="middle" x="1253" y="-127.4" font-family="Times Roman,serif" font-size="14.00">audrey</text>
</g>
<!-- audrey&#45;arnaud -->
<g id="node50" class="node"><title>audrey&#45;arnaud</title>
<ellipse fill="purple" stroke="purple" cx="1146" cy="-75" rx="0" ry="0.5"/>
</g>
<!-- audrey&#45;&gt;audrey&#45;arnaud -->
<g id="edge86" class="edge"><title>audrey&#45;&gt;audrey&#45;arnaud</title>
<path fill="none" stroke="red" d="M1224.89,-116.287C1195.17,-100.732 1151.84,-78.0552 1146.54,-75.2814"/>
</g>
<!-- brigitte -->
<g id="node15" class="node"><title>brigitte</title>
<ellipse fill="pink" stroke="pink" cx="617" cy="-243" rx="46.8775" ry="18.3848"/>
<text text-anchor="middle" x="617" y="-239.4" font-family="Times Roman,serif" font-size="14.00">brigitte</text>
</g>
<!-- brigitte&#45;michel -->
<g id="node53" class="node"><title>brigitte&#45;michel</title>
<ellipse fill="purple" stroke="purple" cx="601" cy="-187" rx="0" ry="0.5"/>
</g>
<!-- brigitte&#45;&gt;brigitte&#45;michel -->
<g id="edge98" class="edge"><title>brigitte&#45;&gt;brigitte&#45;michel</title>
<path fill="none" stroke="red" d="M611.672,-224.353C607.454,-209.59 602.116,-190.907 601.153,-187.534"/>
</g>
<!-- blanche -->
<g id="node16" class="node"><title>blanche</title>
<ellipse fill="pink" stroke="pink" cx="828" cy="-355" rx="48.9975" ry="18.3848"/>
<text text-anchor="middle" x="828" y="-351.4" font-family="Times Roman,serif" font-size="14.00">blanche</text>
</g>
<!-- blanche&#45;louis -->
<g id="node44" class="node"><title>blanche&#45;louis</title>
<ellipse fill="purple" stroke="purple" cx="905" cy="-299" rx="0" ry="0.5"/>
</g>
<!-- blanche&#45;&gt;blanche&#45;louis -->
<g id="edge50" class="edge"><title>blanche&#45;&gt;blanche&#45;louis</title>
<path fill="none" stroke="red" d="M850.686,-338.501C871.27,-323.531 899.153,-303.252 904.2,-299.582"/>
</g>
<!-- eglantine -->
<g id="node17" class="node"><title>eglantine</title>
<ellipse fill="pink" stroke="pink" cx="570" cy="-131" rx="56.7776" ry="18.3848"/>
<text text-anchor="middle" x="570" y="-127.4" font-family="Times Roman,serif" font-size="14.00">eglantine</text>
</g>
<!-- elise -->
<g id="node18" class="node"><title>elise</title>
<ellipse fill="pink" stroke="pink" cx="502" cy="-467" rx="33.234" ry="18.3848"/>
<text text-anchor="middle" x="502" y="-463.4" font-family="Times Roman,serif" font-size="14.00">elise</text>
</g>
<!-- elise&#45;cesar -->
<g id="node42" class="node"><title>elise&#45;cesar</title>
<ellipse fill="purple" stroke="purple" cx="521" cy="-411" rx="0" ry="0.5"/>
</g>
<!-- elise&#45;&gt;elise&#45;cesar -->
<g id="edge58" class="edge"><title>elise&#45;&gt;elise&#45;cesar</title>
<path fill="none" stroke="red" d="M508.221,-448.664C513.243,-433.863 519.658,-414.956 520.817,-411.541"/>
</g>
<!-- adele -->
<g id="node19" class="node"><title>adele</title>
<ellipse fill="pink" stroke="pink" cx="682" cy="-467" rx="36.977" ry="18.3848"/>
<text text-anchor="middle" x="682" y="-463.4" font-family="Times Roman,serif" font-size="14.00">adele</text>
</g>
<!-- adele&#45;robert&#45;charles -->
<g id="node41" class="node"><title>adele&#45;robert&#45;charles</title>
<ellipse fill="purple" stroke="purple" cx="682" cy="-411" rx="0" ry="0.5"/>
</g>
<!-- adele&#45;&gt;adele&#45;robert&#45;charles -->
<g id="edge90" class="edge"><title>adele&#45;&gt;adele&#45;robert&#45;charles</title>
<path fill="none" stroke="red" d="M682,-448.353C682,-433.59 682,-414.907 682,-411.534"/>
</g>
<!-- clarence -->
<g id="node20" class="node"><title>clarence</title>
<ellipse fill="cyan" stroke="cyan" cx="1272" cy="-19" rx="51.8276" ry="18.3848"/>
<text text-anchor="middle" x="1272" y="-15.4" font-family="Times Roman,serif" font-size="14.00">clarence</text>
</g>
<!-- rene -->
<g id="node21" class="node"><title>rene</title>
<ellipse fill="cyan" stroke="cyan" cx="298" cy="-355" rx="33.9411" ry="18.3848"/>
<text text-anchor="middle" x="298" y="-351.4" font-family="Times Roman,serif" font-size="14.00">rene</text>
</g>
<!-- rene&#45;&gt;jeanne&#45;rene -->
<g id="edge96" class="edge"><title>rene&#45;&gt;jeanne&#45;rene</title>
<path fill="none" stroke="red" d="M298,-336.353C298,-321.59 298,-302.907 298,-299.534"/>
</g>
<!-- william -->
<g id="node22" class="node"><title>william</title>
<ellipse fill="cyan" stroke="cyan" cx="691" cy="-131" rx="45.9619" ry="18.3848"/>
<text text-anchor="middle" x="691" y="-127.4" font-family="Times Roman,serif" font-size="14.00">william</text>
</g>
<!-- marius -->
<g id="node23" class="node"><title>marius</title>
<ellipse fill="cyan" stroke="cyan" cx="1200" cy="-355" rx="44.0472" ry="18.3848"/>
<text text-anchor="middle" x="1200" y="-351.4" font-family="Times Roman,serif" font-size="14.00">marius</text>
</g>
<!-- marius&#45;&gt;madeleine&#45;marius -->
<g id="edge64" class="edge"><title>marius&#45;&gt;madeleine&#45;marius</title>
<path fill="none" stroke="red" d="M1172.43,-340.433C1142.98,-324.877 1099.82,-302.073 1094.54,-299.283"/>
</g>
<!-- jean -->
<g id="node24" class="node"><title>jean</title>
<ellipse fill="cyan" stroke="cyan" cx="881" cy="-243" rx="32.0265" ry="18.3848"/>
<text text-anchor="middle" x="881" y="-239.4" font-family="Times Roman,serif" font-size="14.00">jean</text>
</g>
<!-- jean&#45;&gt;helene&#45;jean -->
<g id="edge72" class="edge"><title>jean&#45;&gt;helene&#45;jean</title>
<path fill="none" stroke="red" d="M860.656,-228.579C839.443,-213.542 808.505,-191.611 802.891,-187.631"/>
</g>
<!-- cesar -->
<g id="node25" class="node"><title>cesar</title>
<ellipse fill="cyan" stroke="cyan" cx="590" cy="-467" rx="36.977" ry="18.3848"/>
<text text-anchor="middle" x="590" y="-463.4" font-family="Times Roman,serif" font-size="14.00">cesar</text>
</g>
<!-- cesar&#45;&gt;elise&#45;cesar -->
<g id="edge60" class="edge"><title>cesar&#45;&gt;elise&#45;cesar</title>
<path fill="none" stroke="red" d="M570.412,-451.102C551.925,-436.099 526.364,-415.354 521.734,-411.596"/>
</g>
<!-- maxence -->
<g id="node26" class="node"><title>maxence</title>
<ellipse fill="cyan" stroke="cyan" cx="1018" cy="-19" rx="53.9477" ry="18.3848"/>
<text text-anchor="middle" x="1018" y="-15.4" font-family="Times Roman,serif" font-size="14.00">maxence</text>
</g>
<!-- marc -->
<g id="node27" class="node"><title>marc</title>
<ellipse fill="cyan" stroke="cyan" cx="517" cy="-243" rx="34.8574" ry="18.3848"/>
<text text-anchor="middle" x="517" y="-239.4" font-family="Times Roman,serif" font-size="14.00">marc</text>
</g>
<!-- marc&#45;&gt;laurence&#45;marc -->
<g id="edge76" class="edge"><title>marc&#45;&gt;laurence&#45;marc</title>
<path fill="none" stroke="red" d="M497.223,-227.401C478.184,-212.384 451.584,-191.404 446.764,-187.603"/>
</g>
<!-- antoine -->
<g id="node28" class="node"><title>antoine</title>
<ellipse fill="cyan" stroke="cyan" cx="446" cy="-131" rx="48.7904" ry="18.3848"/>
<text text-anchor="middle" x="446" y="-127.4" font-family="Times Roman,serif" font-size="14.00">antoine</text>
</g>
<!-- antoine&#45;&gt;christelle&#45;antoine -->
<g id="edge80" class="edge"><title>antoine&#45;&gt;christelle&#45;antoine</title>
<path fill="none" stroke="red" d="M482.689,-118.514C489.733,-116.249 497.072,-113.98 504,-112 567.321,-93.899 647.112,-76.6905 654.453,-75.117"/>
</g>
<!-- xavier -->
<g id="node29" class="node"><title>xavier</title>
<ellipse fill="cyan" stroke="cyan" cx="1148" cy="-131" rx="41.2167" ry="18.3848"/>
<text text-anchor="middle" x="1148" y="-127.4" font-family="Times Roman,serif" font-size="14.00">xavier</text>
</g>
<!-- abel -->
<g id="node30" class="node"><title>abel</title>
<ellipse fill="cyan" stroke="cyan" cx="161" cy="-467" rx="31.8198" ry="18.3848"/>
<text text-anchor="middle" x="161" y="-463.4" font-family="Times Roman,serif" font-size="14.00">abel</text>
</g>
<!-- abel&#45;&gt;marie&#45;abel -->
<g id="edge56" class="edge"><title>abel&#45;&gt;marie&#45;abel</title>
<path fill="none" stroke="red" d="M161,-448.353C161,-433.59 161,-414.907 161,-411.534"/>
</g>
<!-- arnaud -->
<g id="node31" class="node"><title>arnaud</title>
<ellipse fill="cyan" stroke="cyan" cx="1043" cy="-131" rx="45.9619" ry="18.3848"/>
<text text-anchor="middle" x="1043" y="-127.4" font-family="Times Roman,serif" font-size="14.00">arnaud</text>
</g>
<!-- arnaud&#45;&gt;audrey&#45;arnaud -->
<g id="edge88" class="edge"><title>arnaud&#45;&gt;audrey&#45;arnaud</title>
<path fill="none" stroke="red" d="M1070.6,-115.993C1099.21,-100.442 1140.45,-78.0201 1145.49,-75.2781"/>
</g>
<!-- michel -->
<g id="node32" class="node"><title>michel</title>
<ellipse fill="cyan" stroke="cyan" cx="421" cy="-243" rx="43.1335" ry="18.3848"/>
<text text-anchor="middle" x="421" y="-239.4" font-family="Times Roman,serif" font-size="14.00">michel</text>
</g>
<!-- michel&#45;&gt;brigitte&#45;michel -->
<g id="edge100" class="edge"><title>michel&#45;&gt;brigitte&#45;michel</title>
<path fill="none" stroke="red" d="M453.334,-230.795C459.819,-228.458 466.605,-226.09 473,-224 525.771,-206.755 592.096,-189.325 600.181,-187.213"/>
</g>
<!-- robert -->
<g id="node33" class="node"><title>robert</title>
<ellipse fill="cyan" stroke="cyan" cx="645" cy="-355" rx="41.2167" ry="18.3848"/>
<text text-anchor="middle" x="645" y="-351.4" font-family="Times Roman,serif" font-size="14.00">robert</text>
</g>
<!-- robert&#45;&gt;marthe&#45;robert -->
<g id="edge104" class="edge"><title>robert&#45;&gt;marthe&#45;robert</title>
<path fill="none" stroke="red" d="M615.928,-341.87C581.568,-326.353 528.2,-302.252 521.663,-299.3"/>
</g>
<!-- theo -->
<g id="node34" class="node"><title>theo</title>
<ellipse fill="cyan" stroke="cyan" cx="611" cy="-19" rx="33.9411" ry="18.3848"/>
<text text-anchor="middle" x="611" y="-15.4" font-family="Times Roman,serif" font-size="14.00">theo</text>
</g>
<!-- claude -->
<g id="node35" class="node"><title>claude</title>
<ellipse fill="cyan" stroke="cyan" cx="974" cy="-243" rx="43.1335" ry="18.3848"/>
<text text-anchor="middle" x="974" y="-239.4" font-family="Times Roman,serif" font-size="14.00">claude</text>
</g>
<!-- claude&#45;&gt;muguette&#45;claude -->
<g id="edge108" class="edge"><title>claude&#45;&gt;muguette&#45;claude</title>
<path fill="none" stroke="red" d="M994.329,-226.501C1012.77,-211.531 1037.76,-191.252 1042.28,-187.582"/>
</g>
<!-- robert&#45;charles -->
<g id="node36" class="node"><title>robert&#45;charles</title>
<ellipse fill="cyan" stroke="cyan" cx="817" cy="-467" rx="79.9031" ry="18.3848"/>
<text text-anchor="middle" x="817" y="-463.4" font-family="Times Roman,serif" font-size="14.00">robert&#45;charles</text>
</g>
<!-- robert&#45;charles&#45;&gt;adele&#45;robert&#45;charles -->
<g id="edge92" class="edge"><title>robert&#45;charles&#45;&gt;adele&#45;robert&#45;charles</title>
<path fill="none" stroke="red" d="M777.952,-450.802C740.574,-435.297 688.947,-413.882 682.64,-411.265"/>
</g>
<!-- thomas -->
<g id="node37" class="node"><title>thomas</title>
<ellipse fill="cyan" stroke="cyan" cx="133" cy="-131" rx="48.0833" ry="18.3848"/>
<text text-anchor="middle" x="133" y="-127.4" font-family="Times Roman,serif" font-size="14.00">thomas</text>
</g>
<!-- louis -->
<g id="node38" class="node"><title>louis</title>
<ellipse fill="cyan" stroke="cyan" cx="929" cy="-355" rx="33.9411" ry="18.3848"/>
<text text-anchor="middle" x="929" y="-351.4" font-family="Times Roman,serif" font-size="14.00">louis</text>
</g>
<!-- louis&#45;&gt;blanche&#45;louis -->
<g id="edge52" class="edge"><title>louis&#45;&gt;blanche&#45;louis</title>
<path fill="none" stroke="red" d="M921.274,-336.973C914.916,-322.137 906.716,-303.004 905.235,-299.547"/>
</g>
<!-- charles&#45;louis -->
<g id="node39" class="node"><title>charles&#45;louis</title>
<ellipse fill="cyan" stroke="cyan" cx="379" cy="-467" rx="72.1249" ry="18.3848"/>
<text text-anchor="middle" x="379" y="-463.4" font-family="Times Roman,serif" font-size="14.00">charles&#45;louis</text>
</g>
<!-- charles&#45;louis&#45;&gt;louise&#45;charles&#45;louis -->
<g id="edge68" class="edge"><title>charles&#45;louis&#45;&gt;louise&#45;charles&#45;louis</title>
<path fill="none" stroke="red" d="M353.815,-449.588C332.267,-434.69 303.934,-415.103 298.812,-411.561"/>
</g>
<!-- pierre -->
<g id="node40" class="node"><title>pierre</title>
<ellipse fill="cyan" stroke="cyan" cx="196" cy="-243" rx="39.8075" ry="18.3848"/>
<text text-anchor="middle" x="196" y="-239.4" font-family="Times Roman,serif" font-size="14.00">pierre</text>
</g>
<!-- pierre&#45;&gt;marie&#45;paule&#45;pierre -->
<g id="edge84" class="edge"><title>pierre&#45;&gt;marie&#45;paule&#45;pierre</title>
<path fill="none" stroke="red" d="M177.439,-226.501C160.597,-211.531 137.784,-191.252 133.654,-187.582"/>
</g>
<!-- adele&#45;robert&#45;charles&#45;&gt;robert -->
<g id="edge32" class="edge"><title>adele&#45;robert&#45;charles&#45;&gt;robert</title>
<path fill="none" stroke="red" d="M681.584,-410.371C679.155,-406.694 666.562,-387.634 656.821,-372.892"/>
</g>
<!-- elise&#45;cesar&#45;&gt;marthe -->
<g id="edge34" class="edge"><title>elise&#45;cesar&#45;&gt;marthe</title>
<path fill="none" stroke="red" d="M521,-410.371C521,-406.766 521,-388.376 521,-373.764"/>
</g>
<!-- marie&#45;abel&#45;&gt;jeanne -->
<g id="edge10" class="edge"><title>marie&#45;abel&#45;&gt;jeanne</title>
<path fill="none" stroke="red" d="M161.056,-410.371C161.378,-406.766 163.02,-388.376 164.325,-373.764"/>
</g>
<!-- blanche&#45;louis&#45;&gt;jean -->
<g id="edge48" class="edge"><title>blanche&#45;louis&#45;&gt;jean</title>
<path fill="none" stroke="red" d="M904.73,-298.371C903.165,-294.718 895.093,-275.883 888.792,-261.182"/>
</g>
<!-- blanche&#45;louis&#45;&gt;claude -->
<g id="edge26" class="edge"><title>blanche&#45;louis&#45;&gt;claude</title>
<path fill="none" stroke="red" d="M905.441,-298.642C909.113,-295.662 934.976,-274.671 953.857,-259.348"/>
</g>
<!-- helene&#45;jean&#45;&gt;mylene -->
<g id="edge16" class="edge"><title>helene&#45;jean&#45;&gt;mylene</title>
<path fill="none" stroke="red" d="M802,-186.371C802,-182.766 802,-164.376 802,-149.764"/>
</g>
<!-- louise&#45;charles&#45;louis&#45;&gt;rene -->
<g id="edge36" class="edge"><title>louise&#45;charles&#45;louis&#45;&gt;rene</title>
<path fill="none" stroke="red" d="M298,-410.371C298,-406.766 298,-388.376 298,-373.764"/>
</g>
<!-- marthe&#45;robert&#45;&gt;marc -->
<g id="edge42" class="edge"><title>marthe&#45;robert&#45;&gt;marc</title>
<path fill="none" stroke="red" d="M520.955,-298.371C520.698,-294.766 519.384,-276.376 518.34,-261.764"/>
</g>
<!-- marie&#45;paule&#45;pierre&#45;&gt;thomas -->
<g id="edge20" class="edge"><title>marie&#45;paule&#45;pierre&#45;&gt;thomas</title>
<path fill="none" stroke="red" d="M133,-186.371C133,-182.766 133,-164.376 133,-149.764"/>
</g>
<!-- jeanne&#45;rene&#45;&gt;marie&#45;paule -->
<g id="edge40" class="edge"><title>jeanne&#45;rene&#45;&gt;marie&#45;paule</title>
<path fill="none" stroke="red" d="M297.343,-298.839C288.148,-296.591 184.532,-271.252 120.08,-255.491"/>
</g>
<!-- jeanne&#45;rene&#45;&gt;laurence -->
<g id="edge14" class="edge"><title>jeanne&#45;rene&#45;&gt;laurence</title>
<path fill="none" stroke="red" d="M298.101,-298.371C298.684,-294.742 301.676,-276.13 304.031,-261.472"/>
</g>
<!-- jeanne&#45;rene&#45;&gt;michel -->
<g id="edge12" class="edge"><title>jeanne&#45;rene&#45;&gt;michel</title>
<path fill="none" stroke="red" d="M298.785,-298.642C305.742,-295.475 357.353,-271.977 391.245,-256.547"/>
</g>
<!-- audrey&#45;arnaud&#45;&gt;clemence -->
<g id="edge8" class="edge"><title>audrey&#45;arnaud&#45;&gt;clemence</title>
<path fill="none" stroke="red" d="M1146,-74.3711C1146,-70.7662 1146,-52.3756 1146,-37.764"/>
</g>
<!-- audrey&#45;arnaud&#45;&gt;clarence -->
<g id="edge24" class="edge"><title>audrey&#45;arnaud&#45;&gt;clarence</title>
<path fill="none" stroke="red" d="M1146.8,-74.6424C1153.78,-71.5405 1204.64,-48.9363 1239.35,-33.5102"/>
</g>
<!-- audrey&#45;arnaud&#45;&gt;maxence -->
<g id="edge30" class="edge"><title>audrey&#45;arnaud&#45;&gt;maxence</title>
<path fill="none" stroke="red" d="M1145.18,-74.6424C1138.11,-71.5498 1086.74,-49.0719 1051.48,-33.6493"/>
</g>
<!-- muguette&#45;claude&#45;&gt;christelle -->
<g id="edge4" class="edge"><title>muguette&#45;claude&#45;&gt;christelle</title>
<path fill="none" stroke="red" d="M1042.23,-186.642C1035.69,-183.587 988.594,-161.611 955.592,-146.21"/>
</g>
<!-- muguette&#45;claude&#45;&gt;xavier -->
<g id="edge38" class="edge"><title>muguette&#45;claude&#45;&gt;xavier</title>
<path fill="none" stroke="red" d="M1043.67,-186.642C1049.52,-183.522 1092.38,-160.664 1121.31,-145.233"/>
</g>
<!-- muguette&#45;claude&#45;&gt;arnaud -->
<g id="edge44" class="edge"><title>muguette&#45;claude&#45;&gt;arnaud</title>
<path fill="none" stroke="red" d="M1043,-186.371C1043,-182.766 1043,-164.376 1043,-149.764"/>
</g>
<!-- madeleine&#45;marius&#45;&gt;muguette -->
<g id="edge6" class="edge"><title>madeleine&#45;marius&#45;&gt;muguette</title>
<path fill="none" stroke="red" d="M1094,-298.371C1094,-294.766 1094,-276.376 1094,-261.764"/>
</g>
<!-- brigitte&#45;michel&#45;&gt;eglantine -->
<g id="edge2" class="edge"><title>brigitte&#45;michel&#45;&gt;eglantine</title>
<path fill="none" stroke="red" d="M600.652,-186.371C598.643,-182.742 588.34,-164.13 580.226,-149.472"/>
</g>
<!-- brigitte&#45;michel&#45;&gt;william -->
<g id="edge18" class="edge"><title>brigitte&#45;michel&#45;&gt;william</title>
<path fill="none" stroke="red" d="M601.575,-186.642C606.425,-183.624 640.947,-162.144 665.645,-146.776"/>
</g>
<!-- christelle&#45;antoine&#45;&gt;chloe -->
<g id="edge28" class="edge"><title>christelle&#45;antoine&#45;&gt;chloe</title>
<path fill="none" stroke="red" d="M655.505,-74.3711C658.499,-70.646 674.179,-51.1332 686.085,-36.3161"/>
</g>
<!-- christelle&#45;antoine&#45;&gt;theo -->
<g id="edge46" class="edge"><title>christelle&#45;antoine&#45;&gt;theo</title>
<path fill="none" stroke="red" d="M654.506,-74.3711C651.56,-70.622 636.049,-50.8807 624.381,-36.0299"/>
</g>
<!-- laurence&#45;marc&#45;&gt;antoine -->
<g id="edge22" class="edge"><title>laurence&#45;marc&#45;&gt;antoine</title>
<path fill="none" stroke="red" d="M446,-186.371C446,-182.766 446,-164.376 446,-149.764"/>
</g>
</g>
</svg>
